<svg width="308" height="111" viewBox="0 0 308 111" fill="none" xmlns="http://www.w3.org/2000/svg">
<rect width="308" height="111" fill="black"/>
<path d="M72.6946 41.98V67H68.5906V49.864L60.9586 67H58.1146L50.4466 49.864V67H46.3426V41.98H50.7706L59.5546 61.6L68.3026 41.98H72.6946ZM86.6927 67.324C84.8207 67.324 83.1287 66.904 81.6167 66.064C80.1047 65.2 78.9167 64 78.0527 62.464C77.1887 60.904 76.7567 59.104 76.7567 57.064C76.7567 55.048 77.2007 53.26 78.0887 51.7C78.9767 50.14 80.1887 48.94 81.7247 48.1C83.2607 47.26 84.9767 46.84 86.8727 46.84C88.7687 46.84 90.4847 47.26 92.0207 48.1C93.5567 48.94 94.7687 50.14 95.6567 51.7C96.5447 53.26 96.9887 55.048 96.9887 57.064C96.9887 59.08 96.5327 60.868 95.6207 62.428C94.7087 63.988 93.4607 65.2 91.8767 66.064C90.3167 66.904 88.5887 67.324 86.6927 67.324ZM86.6927 63.76C87.7487 63.76 88.7327 63.508 89.6447 63.004C90.5807 62.5 91.3367 61.744 91.9127 60.736C92.4887 59.728 92.7767 58.504 92.7767 57.064C92.7767 55.624 92.5007 54.412 91.9487 53.428C91.3967 52.42 90.6647 51.664 89.7527 51.16C88.8407 50.656 87.8567 50.404 86.8007 50.404C85.7447 50.404 84.7607 50.656 83.8487 51.16C82.9607 51.664 82.2527 52.42 81.7247 53.428C81.1967 54.412 80.9327 55.624 80.9327 57.064C80.9327 59.2 81.4727 60.856 82.5527 62.032C83.6567 63.184 85.0367 63.76 86.6927 63.76ZM105.15 50.044C105.75 49.036 106.542 48.256 107.526 47.704C108.534 47.128 109.722 46.84 111.09 46.84V51.088H110.046C108.438 51.088 107.214 51.496 106.374 52.312C105.558 53.128 105.15 54.544 105.15 56.56V67H101.046V47.164H105.15V50.044ZM133.042 56.596C133.042 57.34 132.994 58.012 132.898 58.612H117.742C117.862 60.196 118.45 61.468 119.506 62.428C120.562 63.388 121.858 63.868 123.394 63.868C125.602 63.868 127.162 62.944 128.074 61.096H132.502C131.902 62.92 130.81 64.42 129.226 65.596C127.666 66.748 125.722 67.324 123.394 67.324C121.498 67.324 119.794 66.904 118.282 66.064C116.794 65.2 115.618 64 114.754 62.464C113.914 60.904 113.494 59.104 113.494 57.064C113.494 55.024 113.902 53.236 114.718 51.7C115.558 50.14 116.722 48.94 118.21 48.1C119.722 47.26 121.45 46.84 123.394 46.84C125.266 46.84 126.934 47.248 128.398 48.064C129.862 48.88 131.002 50.032 131.818 51.52C132.634 52.984 133.042 54.676 133.042 56.596ZM128.758 55.3C128.734 53.788 128.194 52.576 127.138 51.664C126.082 50.752 124.774 50.296 123.214 50.296C121.798 50.296 120.586 50.752 119.578 51.664C118.57 52.552 117.97 53.764 117.778 55.3H128.758ZM145.064 56.992C145.064 55 145.472 53.236 146.288 51.7C147.128 50.164 148.256 48.976 149.672 48.136C151.112 47.272 152.708 46.84 154.46 46.84C155.756 46.84 157.028 47.128 158.276 47.704C159.548 48.256 160.556 49 161.3 49.936V40.36H165.44V67H161.3V64.012C160.628 64.972 159.692 65.764 158.492 66.388C157.316 67.012 155.96 67.324 154.424 67.324C152.696 67.324 151.112 66.892 149.672 66.028C148.256 65.14 147.128 63.916 146.288 62.356C145.472 60.772 145.064 58.984 145.064 56.992ZM161.3 57.064C161.3 55.696 161.012 54.508 160.436 53.5C159.884 52.492 159.152 51.724 158.24 51.196C157.328 50.668 156.344 50.404 155.288 50.404C154.232 50.404 153.248 50.668 152.336 51.196C151.424 51.7 150.68 52.456 150.104 53.464C149.552 54.448 149.276 55.624 149.276 56.992C149.276 58.36 149.552 59.56 150.104 60.592C150.68 61.624 151.424 62.416 152.336 62.968C153.272 63.496 154.256 63.76 155.288 63.76C156.344 63.76 157.328 63.496 158.24 62.968C159.152 62.44 159.884 61.672 160.436 60.664C161.012 59.632 161.3 58.432 161.3 57.064ZM189.011 56.596C189.011 57.34 188.963 58.012 188.867 58.612H173.711C173.831 60.196 174.419 61.468 175.475 62.428C176.531 63.388 177.827 63.868 179.363 63.868C181.571 63.868 183.131 62.944 184.043 61.096H188.471C187.871 62.92 186.779 64.42 185.195 65.596C183.635 66.748 181.691 67.324 179.363 67.324C177.467 67.324 175.763 66.904 174.251 66.064C172.763 65.2 171.587 64 170.723 62.464C169.883 60.904 169.463 59.104 169.463 57.064C169.463 55.024 169.871 53.236 170.687 51.7C171.527 50.14 172.691 48.94 174.179 48.1C175.691 47.26 177.419 46.84 179.363 46.84C181.235 46.84 182.903 47.248 184.367 48.064C185.831 48.88 186.971 50.032 187.787 51.52C188.603 52.984 189.011 54.676 189.011 56.596ZM184.727 55.3C184.703 53.788 184.163 52.576 183.107 51.664C182.051 50.752 180.743 50.296 179.183 50.296C177.767 50.296 176.555 50.752 175.547 51.664C174.539 52.552 173.939 53.764 173.747 55.3H184.727ZM197.838 50.512V61.492C197.838 62.236 198.006 62.776 198.342 63.112C198.702 63.424 199.302 63.58 200.142 63.58H202.662V67H199.422C197.574 67 196.158 66.568 195.174 65.704C194.19 64.84 193.698 63.436 193.698 61.492V50.512H191.358V47.164H193.698V42.232H197.838V47.164H202.662V50.512H197.838ZM205.076 56.992C205.076 55 205.484 53.236 206.3 51.7C207.14 50.164 208.268 48.976 209.684 48.136C211.124 47.272 212.708 46.84 214.436 46.84C215.996 46.84 217.352 47.152 218.504 47.776C219.68 48.376 220.616 49.132 221.312 50.044V47.164H225.452V67H221.312V64.048C220.616 64.984 219.668 65.764 218.468 66.388C217.268 67.012 215.9 67.324 214.364 67.324C212.66 67.324 211.1 66.892 209.684 66.028C208.268 65.14 207.14 63.916 206.3 62.356C205.484 60.772 205.076 58.984 205.076 56.992ZM221.312 57.064C221.312 55.696 221.024 54.508 220.448 53.5C219.896 52.492 219.164 51.724 218.252 51.196C217.34 50.668 216.356 50.404 215.3 50.404C214.244 50.404 213.26 50.668 212.348 51.196C211.436 51.7 210.692 52.456 210.116 53.464C209.564 54.448 209.288 55.624 209.288 56.992C209.288 58.36 209.564 59.56 210.116 60.592C210.692 61.624 211.436 62.416 212.348 62.968C213.284 63.496 214.268 63.76 215.3 63.76C216.356 63.76 217.34 63.496 218.252 62.968C219.164 62.44 219.896 61.672 220.448 60.664C221.024 59.632 221.312 58.432 221.312 57.064ZM232.931 44.536C232.187 44.536 231.563 44.284 231.059 43.78C230.555 43.276 230.303 42.652 230.303 41.908C230.303 41.164 230.555 40.54 231.059 40.036C231.563 39.532 232.187 39.28 232.931 39.28C233.651 39.28 234.263 39.532 234.767 40.036C235.271 40.54 235.523 41.164 235.523 41.908C235.523 42.652 235.271 43.276 234.767 43.78C234.263 44.284 233.651 44.536 232.931 44.536ZM234.947 47.164V67H230.843V47.164H234.947ZM244.439 40.36V67H240.335V40.36H244.439ZM257.027 67.324C255.467 67.324 254.063 67.048 252.815 66.496C251.591 65.92 250.619 65.152 249.899 64.192C249.179 63.208 248.795 62.116 248.747 60.916H252.995C253.067 61.756 253.463 62.464 254.183 63.04C254.927 63.592 255.851 63.868 256.955 63.868C258.107 63.868 258.995 63.652 259.619 63.22C260.267 62.764 260.591 62.188 260.591 61.492C260.591 60.748 260.231 60.196 259.511 59.836C258.815 59.476 257.699 59.08 256.163 58.648C254.675 58.24 253.463 57.844 252.527 57.46C251.591 57.076 250.775 56.488 250.079 55.696C249.407 54.904 249.071 53.86 249.071 52.564C249.071 51.508 249.383 50.548 250.007 49.684C250.631 48.796 251.519 48.1 252.671 47.596C253.847 47.092 255.191 46.84 256.703 46.84C258.959 46.84 260.771 47.416 262.139 48.568C263.531 49.696 264.275 51.244 264.371 53.212H260.267C260.195 52.324 259.835 51.616 259.187 51.088C258.539 50.56 257.663 50.296 256.559 50.296C255.479 50.296 254.651 50.5 254.075 50.908C253.499 51.316 253.211 51.856 253.211 52.528C253.211 53.056 253.403 53.5 253.787 53.86C254.171 54.22 254.639 54.508 255.191 54.724C255.743 54.916 256.559 55.168 257.639 55.48C259.079 55.864 260.255 56.26 261.167 56.668C262.103 57.052 262.907 57.628 263.579 58.396C264.251 59.164 264.599 60.184 264.623 61.456C264.623 62.584 264.311 63.592 263.687 64.48C263.063 65.368 262.175 66.064 261.023 66.568C259.895 67.072 258.563 67.324 257.027 67.324Z" fill="white"/>
</svg>
