<?xml version="1.0" encoding="utf-8"?>
<!-- Generator: Adobe Illustrator 24.2.0, SVG Export Plug-In . SVG Version: 6.00 Build 0)  -->
<svg version="1.1" id="레이어_1" xmlns="http://www.w3.org/2000/svg" xmlns:xlink="http://www.w3.org/1999/xlink" x="0px"
	 y="0px" viewBox="0 0 612 792" style="enable-background:new 0 0 612 792;" xml:space="preserve">
<style type="text/css">
	.st0{fill:#E77E75;}
	.st1{font-family:'AppleSDGothicNeo-Bold-KSCpc-EUC-H';}
	.st2{font-size:22.9944px;}
	.st3{fill:#E78176;}
	.st4{font-size:12px;}
	.st5{letter-spacing:1;}
	.st6{fill:#E62465;}
	.st7{font-family:'AppleSDGothicNeo-Regular-KSCpc-EUC-H';}
	.st8{letter-spacing:28;}
	.st9{letter-spacing:32;}
	.st10{font-size:10px;}
	.st11{letter-spacing:6;}
	.st12{letter-spacing:-1;}
	.st13{font-family:'AppleSDGothicNeo-Medium-KSCpc-EUC-H';}
	.st14{fill:none;stroke:#1A0305;stroke-width:0.5;}
</style>
<text transform="matrix(1 0 0 1 56.6929 70.8364)" class="st0 st1 st2">JENNY</text>
<text transform="matrix(1 0 0 1 125.9756 70.8364)" class="st1 st2"> OH</text>
<text transform="matrix(1 0 0 1 56.6929 103.6343)"><tspan x="0" y="0" class="st3 st1 st4 st5">EMAI</tspan><tspan x="33.11" y="0" class="st3 st1 st4">L</tspan></text>
<text transform="matrix(1 0 0 1 97.3247 103.6343)"><tspan x="0" y="0" class="st6 st7 st4 st8"> </tspan><tspan x="31.37" y="0" class="st6 st7 st4 st9">    </tspan><tspan x="175.37" y="0" class="st6 st7 st4"> </tspan></text>
<text transform="matrix(1 0 0 1 56.6929 116.0342)" class="st7 st10">OHSEULKI1004@GMAIL.COM</text>
<text transform="matrix(1 0 0 1 56.6929 135.6343)"><tspan x="0" y="0" class="st3 st1 st4 st5">MOBIL</tspan><tspan x="41.96" y="0" class="st3 st1 st4">E</tspan></text>
<text transform="matrix(1 0 0 1 56.6929 148.0342)" class="st7 st10">+1</text>
<text transform="matrix(1 0 0 1 65.6929 148.0342)" class="st7 st10"> </text>
<text transform="matrix(1 0 0 1 68.3228 148.0342)"><tspan x="0" y="0" class="st7 st10">9</tspan><tspan x="5.45" y="0" class="st7 st10">19</tspan></text>
<text transform="matrix(1 0 0 1 82.873 148.0342)" class="st7 st10"> </text>
<text transform="matrix(1 0 0 1 85.5029 148.0342)" class="st7 st10">564</text>
<text transform="matrix(1 0 0 1 101.5825 148.0342)" class="st7 st10"> </text>
<text transform="matrix(1 0 0 1 104.2129 148.0342)"><tspan x="0" y="0" class="st7 st10">8</tspan><tspan x="5.65" y="0" class="st7 st10">286</tspan></text>
<text transform="matrix(1 0 0 1 319.4648 71.1118)"><tspan x="0" y="0" class="st3 st1 st4 st5">WEB</tspan><tspan x="28.8" y="0" class="st3 st1 st4">P</tspan><tspan x="36.44" y="0" class="st3 st1 st4 st5">AG</tspan><tspan x="54.55" y="0" class="st3 st1 st4">E</tspan></text>
<text transform="matrix(1 0 0 1 382.1152 71.1118)"><tspan x="0" y="0" class="st6 st7 st4 st11"> </tspan><tspan x="9.35" y="0" class="st6 st7 st4 st9">    </tspan><tspan x="153.35" y="0" class="st6 st7 st4"> </tspan></text>
<text transform="matrix(1 0 0 1 319.4648 83.5117)"><tspan x="0" y="0" class="st7 st10">h</tspan><tspan x="5.36" y="0" class="st7 st10">t</tspan><tspan x="8.77" y="0" class="st7 st10">tp:</tspan><tspan x="20.56" y="0" class="st7 st10">/</tspan><tspan x="23.07" y="0" class="st7 st10">/</tspan><tspan x="26.23" y="0" class="st7 st10">www.jennyseulkioh.com</tspan></text>
<text transform="matrix(1 0 0 1 319.4648 103.1118)"><tspan x="0" y="0" class="st3 st1 st4 st5">GITHU</tspan><tspan x="40.82" y="0" class="st3 st1 st4">B</tspan></text>
<text transform="matrix(1 0 0 1 319.4648 115.5117)"><tspan x="0" y="0" class="st7 st10">h</tspan><tspan x="5.36" y="0" class="st7 st10">t</tspan><tspan x="8.77" y="0" class="st7 st10">tps:</tspan><tspan x="24.71" y="0" class="st7 st10">/</tspan><tspan x="27.22" y="0" class="st7 st10">/</tspan><tspan x="30.01" y="0" class="st7 st10">github.com</tspan><tspan x="77.08" y="0" class="st7 st10">/</tspan><tspan x="79.73" y="0" class="st7 st10">JennyOh1004</tspan></text>
<text transform="matrix(1 0 0 1 319.4648 135.1118)"><tspan x="0" y="0" class="st3 st1 st4 st5">LINKEDI</tspan><tspan x="52.72" y="0" class="st3 st1 st4">N</tspan></text>
<text transform="matrix(1 0 0 1 319.4648 147.5117)"><tspan x="0" y="0" class="st7 st10">h</tspan><tspan x="5.36" y="0" class="st7 st10">t</tspan><tspan x="8.77" y="0" class="st7 st10">tps:</tspan><tspan x="24.71" y="0" class="st7 st10">/</tspan><tspan x="27.22" y="0" class="st7 st10">/</tspan><tspan x="30.38" y="0" class="st7 st10">www.linkedin.com/in/seulkioh1004</tspan></text>
<text transform="matrix(1 0 0 1 56.6929 653.8301)"><tspan x="0" y="0" class="st3 st1 st4 st5">EDUC</tspan><tspan x="35.05" y="0" class="st3 st1 st4">A</tspan><tspan x="43.34" y="0" class="st3 st1 st4 st5">TIO</tspan><tspan x="65.87" y="0" class="st3 st1 st4">N</tspan></text>
<text transform="matrix(1 0 0 1 56.6929 668.2305)" class="st7 st4">University</text>
<text transform="matrix(1 0 0 1 107.4287 668.2305)" class="st7 st4"> </text>
<text transform="matrix(1 0 0 1 110.585 668.2305)" class="st7 st4">of</text>
<text transform="matrix(1 0 0 1 120.8687 668.2305)" class="st7 st4"> </text>
<text transform="matrix(1 0 0 1 124.0249 668.2305)" class="st7 st4">California</text>
<text transform="matrix(1 0 0 1 171.2329 668.2305)" class="st7 st4"> </text>
<text transform="matrix(1 0 0 1 174.3887 668.2305)" class="st7 st4">Berkeley</text>
<text transform="matrix(1 0 0 1 217.8169 668.2305)" class="st7 st4"> </text>
<text transform="matrix(1 0 0 1 220.9727 668.2305)"><tspan x="0" y="0" class="st7 st4">E</tspan><tspan x="6.48" y="0" class="st7 st4">xtension</tspan></text>
<text transform="matrix(1 0 0 1 56.6929 682.6299)"><tspan x="0" y="0" class="st7 st4">•</tspan><tspan x="10.38" y="0" class="st7 st4">F</tspan><tspan x="16.02" y="0" class="st7 st4">ull-Stack</tspan></text>
<text transform="matrix(1 0 0 1 116.7412 682.6299)" class="st7 st4"> </text>
<text transform="matrix(1 0 0 1 119.8975 682.6299)" class="st7 st4">Web</text>
<text transform="matrix(1 0 0 1 142.6733 682.6299)" class="st7 st4"> </text>
<text transform="matrix(1 0 0 1 145.8291 682.6299)"><tspan x="0" y="0" class="st7 st4">D</tspan><tspan x="7.8" y="0" class="st7 st4">e</tspan><tspan x="13.74" y="0" class="st7 st4">velopment</tspan></text>
<text transform="matrix(1 0 0 1 56.6929 711.4297)"><tspan x="0" y="0" class="st7 st4">W</tspan><tspan x="9.92" y="0" class="st7 st4">ake</tspan></text>
<text transform="matrix(1 0 0 1 84.0049 711.4297)" class="st7 st4"> </text>
<text transform="matrix(1 0 0 1 87.1606 711.4297)" class="st7 st4">Tech</text>
<text transform="matrix(1 0 0 1 111.521 711.4297)" class="st7 st4"> </text>
<text transform="matrix(1 0 0 1 114.6768 711.4297)" class="st7 st4">Community</text>
<text transform="matrix(1 0 0 1 172.6968 711.4297)" class="st7 st4"> </text>
<text transform="matrix(1 0 0 1 175.8525 711.4297)" class="st7 st4">College</text>
<text transform="matrix(1 0 0 1 56.6929 725.8301)" class="st7 st4">•Web</text>
<text transform="matrix(1 0 0 1 89.8491 725.8301)" class="st7 st4"> </text>
<text transform="matrix(1 0 0 1 93.0049 725.8301)"><tspan x="0" y="0" class="st7 st4">D</tspan><tspan x="7.8" y="0" class="st7 st4">e</tspan><tspan x="13.74" y="0" class="st7 st4">velopment</tspan></text>
<text transform="matrix(1 0 0 1 56.6929 754.6299)" class="st7 st4">Baekseok</text>
<text transform="matrix(1 0 0 1 104.2485 754.6299)" class="st7 st4"> </text>
<text transform="matrix(1 0 0 1 107.4048 754.6299)" class="st7 st4">University</text>
<text transform="matrix(1 0 0 1 158.1406 754.6299)" class="st7 st4"> </text>
<text transform="matrix(1 0 0 1 161.2969 754.6299)" class="st7 st4">in</text>
<text transform="matrix(1 0 0 1 170.4526 754.6299)" class="st7 st4"> </text>
<text transform="matrix(1 0 0 1 173.6089 754.6299)" class="st7 st4">South</text>
<text transform="matrix(1 0 0 1 203.0566 754.6299)" class="st7 st4"> </text>
<text transform="matrix(1 0 0 1 206.2124 754.6299)" class="st7 st4">Korea</text>
<text transform="matrix(1 0 0 1 56.6929 769.0303)" class="st7 st4">•The</text>
<text transform="matrix(1 0 0 1 86.0332 769.0303)" class="st7 st4"> </text>
<text transform="matrix(1 0 0 1 89.189 769.0303)" class="st7 st4">Bachelor</text>
<text transform="matrix(1 0 0 1 133.001 769.0303)" class="st7 st4"> </text>
<text transform="matrix(1 0 0 1 136.1567 769.0303)" class="st7 st4">of</text>
<text transform="matrix(1 0 0 1 146.4409 769.0303)" class="st7 st4"> </text>
<text transform="matrix(1 0 0 1 149.5967 769.0303)"><tspan x="0" y="0" class="st7 st4">A</tspan><tspan x="7.26" y="0" class="st7 st4">r</tspan><tspan x="11.51" y="0" class="st7 st4">ts</tspan></text>
<text transform="matrix(1 0 0 1 170.2954 769.0303)" class="st7 st4"> </text>
<text transform="matrix(1 0 0 1 173.4517 769.0303)" class="st7 st4">in</text>
<text transform="matrix(1 0 0 1 182.6074 769.0303)" class="st7 st4"> </text>
<text transform="matrix(1 0 0 1 185.7637 769.0303)" class="st7 st4">Tourism</text>
<text transform="matrix(1 0 0 1 56.7407 263.6982)"><tspan x="0" y="0" class="st3 st1 st4 st5">T</tspan><tspan x="8.05" y="0" class="st3 st1 st4">E</tspan><tspan x="15.89" y="0" class="st3 st1 st4 st5">CHNICAL SKILL</tspan><tspan x="113.19" y="0" class="st3 st1 st4">S</tspan></text>
<text transform="matrix(1 0 0 1 56.7407 278.0981)"><tspan x="0" y="0" class="st7 st4">HTML</tspan><tspan x="32.17" y="0" class="st7 st4">5</tspan><tspan x="38.4" y="0" class="st7 st4">,</tspan></text>
<text transform="matrix(1 0 0 1 98.3677 278.0981)" class="st7 st4"> </text>
<text transform="matrix(1 0 0 1 103.0728 278.0981)"><tspan x="0" y="0" class="st7 st4">CSS</tspan><tspan x="20.45" y="0" class="st7 st4">3</tspan><tspan x="27.12" y="0" class="st7 st4">,</tspan></text>
<text transform="matrix(1 0 0 1 133.4209 278.0981)" class="st7 st4"> </text>
<text transform="matrix(1 0 0 1 138.125 278.0981)"><tspan x="0" y="0" class="st7 st4">J</tspan><tspan x="5.46" y="0" class="st7 st4">a</tspan><tspan x="11.57" y="0" class="st7 st4">v</tspan><tspan x="17.78" y="0" class="st7 st4">aScrip</tspan><tspan x="51.33" y="0" class="st7 st4">t</tspan><tspan x="56.15" y="0" class="st7 st4">,</tspan></text>
<text transform="matrix(1 0 0 1 197.5103 278.0981)" class="st7 st4"> </text>
<text transform="matrix(1 0 0 1 202.2051 278.0981)"><tspan x="0" y="0" class="st7 st4">Rea</tspan><tspan x="20.11" y="0" class="st7 st4">c</tspan><tspan x="26.11" y="0" class="st7 st4">t</tspan><tspan x="30.94" y="0" class="st7 st4">,</tspan></text>
<text transform="matrix(1 0 0 1 236.3677 278.0981)" class="st7 st4"> </text>
<text transform="matrix(1 0 0 1 241.0728 278.0981)"><tspan x="0" y="0" class="st7 st4">Redux</tspan><tspan x="34.08" y="0" class="st7 st4">,</tspan></text>
<text transform="matrix(1 0 0 1 278.3691 278.0981)" class="st7 st4"> </text>
<text transform="matrix(1 0 0 1 283.0728 278.0981)"><tspan x="0" y="0" class="st7 st4">Webpack</tspan><tspan x="49.64" y="0" class="st7 st4">,</tspan></text>
<text transform="matrix(1 0 0 1 335.9326 278.0981)" class="st7 st4"> </text>
<text transform="matrix(1 0 0 1 340.6367 278.0981)"><tspan x="0" y="0" class="st7 st4">Babel</tspan><tspan x="30.48" y="0" class="st7 st4">,</tspan></text>
<text transform="matrix(1 0 0 1 374.333 278.0981)" class="st7 st4"> </text>
<text transform="matrix(1 0 0 1 379.0371 278.0981)"><tspan x="0" y="0" class="st7 st4">R</tspan><tspan x="7.32" y="0" class="st7 st4">uby</tspan><tspan x="27.52" y="0" class="st7 st4">,</tspan></text>
<text transform="matrix(1 0 0 1 409.7686 278.0981)" class="st7 st4"> </text>
<text transform="matrix(1 0 0 1 414.4727 278.0981)"><tspan x="0" y="0" class="st7 st4">R</tspan><tspan x="7.32" y="0" class="st7 st4">ub</tspan><tspan x="21.23" y="0" class="st7 st4">y</tspan></text>
<text transform="matrix(1 0 0 1 441.9893 278.0981)" class="st7 st4"> </text>
<text transform="matrix(1 0 0 1 446.6934 278.0981)"><tspan x="0" y="0" class="st7 st4">o</tspan><tspan x="6.91" y="0" class="st7 st4">n</tspan></text>
<text transform="matrix(1 0 0 1 460.541 278.0981)" class="st7 st4"> </text>
<text transform="matrix(1 0 0 1 465.2451 278.0981)"><tspan x="0" y="0" class="st7 st4">R</tspan><tspan x="7.38" y="0" class="st7 st4">ails</tspan><tspan x="25.49" y="0" class="st7 st4">,</tspan></text>
<text transform="matrix(1 0 0 1 493.9492 278.0981)" class="st7 st4"> </text>
<text transform="matrix(1 0 0 1 498.6533 278.0981)"><tspan x="0" y="0" class="st7 st4">Bootst</tspan><tspan x="36.25" y="0" class="st7 st4">r</tspan><tspan x="40.78" y="0" class="st7 st4">ap</tspan><tspan x="53.99" y="0" class="st7 st4">,</tspan></text>
<text transform="matrix(1 0 0 1 555.3525 278.0981)" class="st7 st4"> </text>
<text transform="matrix(1 0 0 1 56.7891 292.498)"><tspan x="0" y="0" class="st7 st4">Pos</tspan><tspan x="18.02" y="0" class="st7 st4">t</tspan><tspan x="22.13" y="0" class="st7 st4">greSQL,</tspan></text>
<text transform="matrix(1 0 0 1 118.1685 292.498)" class="st7 st4"> </text>
<text transform="matrix(1 0 0 1 121.3247 292.498)" class="st7 st4">Adobe</text>
<text transform="matrix(1 0 0 1 154.0723 292.498)" class="st7 st4"> </text>
<text transform="matrix(1 0 0 1 157.2285 292.498)" class="st7 st4">Photoshop,</text>
<text transform="matrix(1 0 0 1 214.3843 292.498)" class="st7 st4"> </text>
<text transform="matrix(1 0 0 1 217.54 292.498)" class="st7 st4">Adobe</text>
<text transform="matrix(1 0 0 1 250.2881 292.498)" class="st7 st4"> </text>
<text transform="matrix(1 0 0 1 253.4438 292.498)"><tspan x="0" y="0" class="st7 st4">Dreamwe</tspan><tspan x="47.99" y="0" class="st7 st4">a</tspan><tspan x="53.59" y="0" class="st7 st4">ve</tspan><tspan x="65.5" y="0" class="st7 st4">r</tspan><tspan x="68.84" y="0" class="st7 st4">,</tspan></text>
<text transform="matrix(1 0 0 1 324.9971 292.498)" class="st7 st4"> </text>
<text transform="matrix(1 0 0 1 328.1533 292.498)" class="st7 st4">Adobe</text>
<text transform="matrix(1 0 0 1 360.9014 292.498)" class="st7 st4"> </text>
<text transform="matrix(1 0 0 1 364.0576 292.498)" class="st7 st4">Animate</text>
<text transform="matrix(1 0 0 1 405.9727 292.498)" class="st7 st4"> </text>
<text transform="matrix(1 0 0 1 409.1289 292.498)" class="st7 st4">CC,</text>
<text transform="matrix(1 0 0 1 425.5215 292.498)" class="st7 st4"> </text>
<text transform="matrix(1 0 0 1 428.6777 292.498)" class="st7 st4">UI</text>
<text transform="matrix(1 0 0 1 439.6211 292.498)" class="st7 st4"> </text>
<text transform="matrix(1 0 0 1 442.7773 292.498)" class="st7 st4">MockUp,</text>
<text transform="matrix(1 0 0 1 486.9609 292.498)" class="st7 st4"> </text>
<text transform="matrix(1 0 0 1 490.1172 292.498)" class="st7 st4">Github</text>
<text transform="matrix(1 0 0 1 56.7407 313.8101)"><tspan x="0" y="0" class="st3 st1 st4 st5">EXPERIENC</tspan><tspan x="72.68" y="0" class="st3 st1 st4">E</tspan></text>
<text transform="matrix(1 0 0 1 56.7407 328.21)"><tspan x="0" y="0" class="st1 st4">M</tspan><tspan x="10.12" y="0" class="st1 st4">e</tspan><tspan x="16.55" y="0" class="st1 st4">tif Korea website - h</tspan><tspan x="125.52" y="0" class="st1 st4">t</tspan><tspan x="129.92" y="0" class="st1 st4">tps:</tspan><tspan x="150" y="0" class="st1 st4 st12">/</tspan><tspan x="153.17" y="0" class="st1 st4">/</tspan><tspan x="157.09" y="0" class="st1 st4">m</tspan><tspan x="167.22" y="0" class="st1 st4">e</tspan><tspan x="173.64" y="0" class="st1 st4">ti</tspan><tspan x="181.24" y="0" class="st1 st4">f</tspan><tspan x="185.72" y="0" class="st1 st4">korea.shop</tspan></text>
<text transform="matrix(1 0 0 1 56.7407 342.6099)"><tspan x="0" y="0" class="st13 st4">•Created and maintained a consume</tspan><tspan x="186.04" y="0" class="st13 st4">r</tspan><tspan x="189.87" y="0" class="st13 st4">-friendly Hair Cosm</tspan><tspan x="287.13" y="0" class="st13 st4">e</tspan><tspan x="293.11" y="0" class="st13 st4">tics &amp; Accessory website and maintained </tspan></text>
<text transform="matrix(1 0 0 1 56.7407 357.0098)"><tspan x="0" y="0" class="st13 st4">    a website using Content Man</tspan><tspan x="157.33" y="0" class="st13 st4">a</tspan><tspan x="162.87" y="0" class="st13 st4">gement System.</tspan></text>
<text transform="matrix(1 0 0 1 56.7407 371.4102)"><tspan x="0" y="0" class="st13 st4">•Redesigned custom themes to improve the effe</tspan><tspan x="247.5" y="0" class="st13 st4">c</tspan><tspan x="252.91" y="0" class="st13 st4">tiveness and accessibility of the website.</tspan></text>
<text transform="matrix(1 0 0 1 56.7407 385.8101)" class="st13 st4">•Refined requirements with client and created feature mockups.</text>
<line class="st14" x1="57.33" y1="163.36" x2="555.31" y2="163.36"/>
<text transform="matrix(1 0 0 1 57.3306 185.2065)"><tspan x="0" y="0" class="st3 st1 st4 st5">CAREER OBJ</tspan><tspan x="80.03" y="0" class="st3 st1 st4">E</tspan><tspan x="87.86" y="0" class="st3 st1 st4 st5">CTIV</tspan><tspan x="117.75" y="0" class="st3 st1 st4">E</tspan></text>
<text transform="matrix(1 0 0 1 57.3306 199.6064)" class="st7 st4">Web</text>
<text transform="matrix(1 0 0 1 80.1064 199.6064)" class="st7 st4"> </text>
<text transform="matrix(1 0 0 1 83.2627 199.6064)"><tspan x="0" y="0" class="st7 st4">D</tspan><tspan x="7.8" y="0" class="st7 st4">e</tspan><tspan x="13.74" y="0" class="st7 st4">veloper</tspan></text>
<text transform="matrix(1 0 0 1 134.7305 199.6064)" class="st7 st4"> </text>
<text transform="matrix(1 0 0 1 137.8867 199.6064)" class="st7 st4">with</text>
<text transform="matrix(1 0 0 1 159.9785 199.6064)" class="st7 st4"> </text>
<text transform="matrix(1 0 0 1 163.1348 199.6064)" class="st7 st4">a</text>
<text transform="matrix(1 0 0 1 168.7988 199.6064)" class="st7 st4"> </text>
<text transform="matrix(1 0 0 1 171.9546 199.6064)"><tspan x="0" y="0" class="st7 st4">bac</tspan><tspan x="17.6" y="0" class="st7 st4">k</tspan><tspan x="23.1" y="0" class="st7 st4">ground</tspan></text>
<text transform="matrix(1 0 0 1 231.0171 199.6064)" class="st7 st4"> </text>
<text transform="matrix(1 0 0 1 234.1729 199.6064)" class="st7 st4">in</text>
<text transform="matrix(1 0 0 1 243.3291 199.6064)" class="st7 st4"> </text>
<text transform="matrix(1 0 0 1 246.4849 199.6064)" class="st7 st4">Tourism</text>
<text transform="matrix(1 0 0 1 287.2729 199.6064)" class="st7 st4"> </text>
<text transform="matrix(1 0 0 1 290.4287 199.6064)" class="st7 st4">and</text>
<text transform="matrix(1 0 0 1 309.0645 199.6064)" class="st7 st4"> </text>
<text transform="matrix(1 0 0 1 312.2207 199.6064)" class="st7 st4">Customer</text>
<text transform="matrix(1 0 0 1 360.7969 199.6064)" class="st7 st4"> </text>
<text transform="matrix(1 0 0 1 363.9531 199.6064)"><tspan x="0" y="0" class="st7 st4">Se</tspan><tspan x="12.05" y="0" class="st7 st4">r</tspan><tspan x="16.31" y="0" class="st7 st4">vice.</tspan></text>
<text transform="matrix(1 0 0 1 403.0088 199.6064)" class="st7 st4"> </text>
<text transform="matrix(1 0 0 1 406.165 199.6064)"><tspan x="0" y="0" class="st7 st4">E</tspan><tspan x="6.36" y="0" class="st7 st4">ffe</tspan><tspan x="20.11" y="0" class="st7 st4">c</tspan><tspan x="25.61" y="0" class="st7 st4">tive</tspan></text>
<text transform="matrix(1 0 0 1 450.5996 199.6064)" class="st7 st4"> </text>
<text transform="matrix(1 0 0 1 453.7559 199.6064)" class="st7 st4">at</text>
<text transform="matrix(1 0 0 1 463.6201 199.6064)" class="st7 st4"> </text>
<text transform="matrix(1 0 0 1 466.7764 199.6064)" class="st7 st4">combining</text>
<text transform="matrix(1 0 0 1 519.1436 199.6064)" class="st7 st4"> </text>
<text transform="matrix(1 0 0 1 57.3306 214.0063)" class="st7 st4">creativity</text>
<text transform="matrix(1 0 0 1 104.083 214.0063)" class="st7 st4"> </text>
<text transform="matrix(1 0 0 1 107.2388 214.0063)" class="st7 st4">with</text>
<text transform="matrix(1 0 0 1 129.3311 214.0063)" class="st7 st4"> </text>
<text transform="matrix(1 0 0 1 132.4868 214.0063)" class="st7 st4">technology</text>
<text transform="matrix(1 0 0 1 188.3467 214.0063)" class="st7 st4"> </text>
<text transform="matrix(1 0 0 1 191.5029 214.0063)" class="st7 st4">to</text>
<text transform="matrix(1 0 0 1 202.1108 214.0063)" class="st7 st4"> </text>
<text transform="matrix(1 0 0 1 205.2666 214.0063)"><tspan x="0" y="0" class="st7 st4">d</tspan><tspan x="6.54" y="0" class="st7 st4">e</tspan><tspan x="12.48" y="0" class="st7 st4">velop</tspan></text>
<text transform="matrix(1 0 0 1 245.3203 214.0063)" class="st7 st4"> </text>
<text transform="matrix(1 0 0 1 248.4766 214.0063)"><tspan x="0" y="0" class="st7 st4">aesth</tspan><tspan x="27.28" y="0" class="st7 st4">e</tspan><tspan x="33.32" y="0" class="st7 st4">tically</tspan></text>
<text transform="matrix(1 0 0 1 311.0312 214.0063)" class="st7 st4"> </text>
<text transform="matrix(1 0 0 1 314.1875 214.0063)" class="st7 st4">pleasing,</text>
<text transform="matrix(1 0 0 1 358.0352 214.0063)" class="st7 st4"> </text>
<text transform="matrix(1 0 0 1 361.1914 214.0063)"><tspan x="0" y="0" class="st7 st4">use</tspan><tspan x="17.34" y="0" class="st7 st4">r</tspan><tspan x="21.23" y="0" class="st7 st4">-friendly</tspan></text>
<text transform="matrix(1 0 0 1 425.833 214.0063)" class="st7 st4"> </text>
<text transform="matrix(1 0 0 1 428.9883 214.0063)" class="st7 st4">web</text>
<text transform="matrix(1 0 0 1 450.2646 214.0063)" class="st7 st4"> </text>
<text transform="matrix(1 0 0 1 453.4209 214.0063)" class="st7 st4">applications.</text>
<text transform="matrix(1 0 0 1 516.1328 214.0063)" class="st7 st4"> </text>
<text transform="matrix(1 0 0 1 57.3306 228.4062)" class="st7 st4">Looking</text>
<text transform="matrix(1 0 0 1 97.1704 228.4062)" class="st7 st4"> </text>
<text transform="matrix(1 0 0 1 100.3267 228.4062)" class="st7 st4">to</text>
<text transform="matrix(1 0 0 1 110.9346 228.4062)" class="st7 st4"> </text>
<text transform="matrix(1 0 0 1 114.0908 228.4062)"><tspan x="0" y="0" class="st7 st4">l</tspan><tspan x="2.72" y="0" class="st7 st4">e</tspan><tspan x="8.66" y="0" class="st7 st4">ve</tspan><tspan x="20.57" y="0" class="st7 st4">r</tspan><tspan x="24.59" y="0" class="st7 st4">a</tspan><tspan x="30.2" y="0" class="st7 st4">ge</tspan></text>
<text transform="matrix(1 0 0 1 156.3535 228.4062)" class="st7 st4"> </text>
<text transform="matrix(1 0 0 1 159.5093 228.4062)" class="st7 st4">the</text>
<text transform="matrix(1 0 0 1 176.1416 228.4062)" class="st7 st4"> </text>
<text transform="matrix(1 0 0 1 179.2974 228.4062)" class="st7 st4">creativity</text>
<text transform="matrix(1 0 0 1 226.0498 228.4062)" class="st7 st4"> </text>
<text transform="matrix(1 0 0 1 229.2056 228.4062)" class="st7 st4">and</text>
<text transform="matrix(1 0 0 1 247.8413 228.4062)" class="st7 st4"> </text>
<text transform="matrix(1 0 0 1 250.9976 228.4062)" class="st7 st4">customer</text>
<text transform="matrix(1 0 0 1 298.1333 228.4062)" class="st7 st4"> </text>
<text transform="matrix(1 0 0 1 301.2891 228.4062)"><tspan x="0" y="0" class="st7 st4">se</tspan><tspan x="10.98" y="0" class="st7 st4">r</tspan><tspan x="15.24" y="0" class="st7 st4">vice</tspan></text>
<text transform="matrix(1 0 0 1 336.5664 228.4062)" class="st7 st4"> </text>
<text transform="matrix(1 0 0 1 339.7227 228.4062)"><tspan x="0" y="0" class="st7 st4">bac</tspan><tspan x="17.6" y="0" class="st7 st4">k</tspan><tspan x="23.1" y="0" class="st7 st4">ground</tspan></text>
<text transform="matrix(1 0 0 1 398.7852 228.4062)" class="st7 st4"> </text>
<text transform="matrix(1 0 0 1 401.9414 228.4062)" class="st7 st4">into</text>
<text transform="matrix(1 0 0 1 421.7051 228.4062)" class="st7 st4"> </text>
<text transform="matrix(1 0 0 1 424.8613 228.4062)" class="st7 st4">a</text>
<text transform="matrix(1 0 0 1 430.5254 228.4062)" class="st7 st4"> </text>
<text transform="matrix(1 0 0 1 433.6816 228.4062)"><tspan x="0" y="0" class="st7 st4">Fron</tspan><tspan x="23.18" y="0" class="st7 st4">t</tspan><tspan x="27.13" y="0" class="st7 st4">-end</tspan></text>
<text transform="matrix(1 0 0 1 484.9678 228.4062)" class="st7 st4"> </text>
<text transform="matrix(1 0 0 1 488.124 228.4062)"><tspan x="0" y="0" class="st7 st4">d</tspan><tspan x="6.54" y="0" class="st7 st4">e</tspan><tspan x="12.48" y="0" class="st7 st4">veloper</tspan></text>
<text transform="matrix(1 0 0 1 538.332 228.4062)" class="st7 st4"> </text>
<text transform="matrix(1 0 0 1 57.3306 242.8066)" class="st7 st4">role.</text>
<text transform="matrix(1 0 0 1 419.3828 654.5381)"><tspan x="0" y="0" class="st3 st1 st4 st5">CE</tspan><tspan x="16.32" y="0" class="st3 st1 st4 st5">R</tspan><tspan x="24.77" y="0" class="st3 st1 st4 st5">TIFIC</tspan><tspan x="58.18" y="0" class="st3 st1 st4">A</tspan><tspan x="66.48" y="0" class="st3 st1 st4 st5">TION</tspan><tspan x="98.55" y="0" class="st3 st1 st4">S</tspan></text>
<text transform="matrix(1 0 0 1 419.3828 668.9385)"><tspan x="0" y="0" class="st7 st4">Microso</tspan><tspan x="39.62" y="0" class="st7 st4">f</tspan><tspan x="43.61" y="0" class="st7 st4">t</tspan></text>
<text transform="matrix(1 0 0 1 467.1904 668.9385)" class="st7 st4"> </text>
<text transform="matrix(1 0 0 1 470.3467 668.9385)" class="st7 st4">CSS</text>
<text transform="matrix(1 0 0 1 489.2822 668.9385)" class="st7 st4"> </text>
<text transform="matrix(1 0 0 1 492.4385 668.9385)"><tspan x="0" y="0" class="st7 st4">2</tspan><tspan x="6.34" y="0" class="st7 st4">0</tspan><tspan x="13.79" y="0" class="st7 st4">19</tspan></text>
<text transform="matrix(1 0 0 1 517.1455 668.9385)" class="st7 st4"> </text>
<text transform="matrix(1 0 0 1 419.3828 683.3389)"><tspan x="0" y="0" class="st7 st4">Microso</tspan><tspan x="39.62" y="0" class="st7 st4">f</tspan><tspan x="43.61" y="0" class="st7 st4">t</tspan></text>
<text transform="matrix(1 0 0 1 467.1904 683.3389)" class="st7 st4"> </text>
<text transform="matrix(1 0 0 1 470.3467 683.3389)" class="st7 st4">HTML</text>
<text transform="matrix(1 0 0 1 500.5029 683.3389)" class="st7 st4"> </text>
<text transform="matrix(1 0 0 1 503.6592 683.3389)"><tspan x="0" y="0" class="st7 st4">2</tspan><tspan x="6.34" y="0" class="st7 st4">0</tspan><tspan x="13.79" y="0" class="st7 st4">19</tspan></text>
<text transform="matrix(1 0 0 1 419.3828 697.7383)"><tspan x="0" y="0" class="st7 st4">Microso</tspan><tspan x="39.62" y="0" class="st7 st4">f</tspan><tspan x="43.61" y="0" class="st7 st4">t</tspan></text>
<text transform="matrix(1 0 0 1 467.1904 697.7383)" class="st7 st4"> </text>
<text transform="matrix(1 0 0 1 470.3467 697.7383)"><tspan x="0" y="0" class="st7 st4">J</tspan><tspan x="4.96" y="0" class="st7 st4">a</tspan><tspan x="10.57" y="0" class="st7 st4">v</tspan><tspan x="16.31" y="0" class="st7 st4">aScript</tspan></text>
<text transform="matrix(1 0 0 1 521.3574 697.7383)" class="st7 st4"> </text>
<text transform="matrix(1 0 0 1 524.5137 697.7383)"><tspan x="0" y="0" class="st7 st4">2</tspan><tspan x="6.34" y="0" class="st7 st4">0</tspan><tspan x="13.79" y="0" class="st7 st4">19</tspan></text>
<text transform="matrix(1 0 0 1 419.3828 726.5381)"><tspan x="0" y="0" class="st3 st1 st4 st5">LANG</tspan><tspan x="35.18" y="0" class="st3 st1 st4">U</tspan><tspan x="44.29" y="0" class="st3 st1 st4 st5">AGE</tspan><tspan x="70.49" y="0" class="st3 st1 st4">S</tspan></text>
<text transform="matrix(1 0 0 1 419.3828 740.9385)" class="st7 st4">ENGLISH</text>
<text transform="matrix(1 0 0 1 464.8027 740.9385)" class="st7 st4"> </text>
<text transform="matrix(1 0 0 1 467.959 740.9385)" class="st7 st4">-</text>
<text transform="matrix(1 0 0 1 473.1426 740.9385)" class="st7 st4"> </text>
<text transform="matrix(1 0 0 1 476.2988 740.9385)" class="st7 st4">Fluent</text>
<text transform="matrix(1 0 0 1 419.3828 755.3389)" class="st7 st4">KOREAN</text>
<text transform="matrix(1 0 0 1 463.3867 755.3389)" class="st7 st4"> </text>
<text transform="matrix(1 0 0 1 466.543 755.3389)" class="st7 st4">-</text>
<text transform="matrix(1 0 0 1 471.7266 755.3389)" class="st7 st4"> </text>
<text transform="matrix(1 0 0 1 474.8828 755.3389)" class="st7 st4">Native</text>
<text transform="matrix(1 0 0 1 57.3306 406.5469)"><tspan x="0" y="0" class="st1 st4">Note App Proje</tspan><tspan x="81.9" y="0" class="st1 st4">c</tspan><tspan x="87.63" y="0" class="st1 st4">ts</tspan></text>
<text transform="matrix(1 0 0 1 57.3306 420.9463)"><tspan x="0" y="0" class="st1 st4">h</tspan><tspan x="6.8" y="0" class="st1 st4">t</tspan><tspan x="11.22" y="0" class="st1 st4">tps:</tspan><tspan x="31.3" y="0" class="st1 st4 st12">/</tspan><tspan x="34.46" y="0" class="st1 st4">/note-app-jenny-oh.herokuapp.com | h</tspan><tspan x="242.14" y="0" class="st1 st4">t</tspan><tspan x="246.55" y="0" class="st1 st4">tps:</tspan><tspan x="266.62" y="0" class="st1 st4 st12">/</tspan><tspan x="269.79" y="0" class="st1 st4">/</tspan><tspan x="273.34" y="0" class="st1 st4">github.com</tspan><tspan x="333.4" y="0" class="st1 st4">/</tspan><tspan x="336.82" y="0" class="st1 st4">JennyOh1004</tspan><tspan x="410.9" y="0" class="st1 st4">/</tspan><tspan x="414.81" y="0" class="st1 st4">my-note-app</tspan></text>
<text transform="matrix(1 0 0 1 57.3306 435.3467)"><tspan x="0" y="0" class="st7 st4">•D</tspan><tspan x="18.18" y="0" class="st7 st4">e</tspan><tspan x="24.12" y="0" class="st7 st4">veloped</tspan></text>
<text transform="matrix(1 0 0 1 121.5669 435.3467)" class="st7 st4"> </text>
<text transform="matrix(1 0 0 1 124.7227 435.3467)" class="st7 st4">note-taking</text>
<text transform="matrix(1 0 0 1 183.7749 435.3467)" class="st7 st4"> </text>
<text transform="matrix(1 0 0 1 186.9307 435.3467)" class="st7 st4">web</text>
<text transform="matrix(1 0 0 1 208.2065 435.3467)" class="st7 st4"> </text>
<text transform="matrix(1 0 0 1 211.3628 435.3467)" class="st7 st4">application</text>
<text transform="matrix(1 0 0 1 266.3828 435.3467)" class="st7 st4"> </text>
<text transform="matrix(1 0 0 1 269.5391 435.3467)" class="st7 st4">with</text>
<text transform="matrix(1 0 0 1 291.6309 435.3467)" class="st7 st4"> </text>
<text transform="matrix(1 0 0 1 294.7871 435.3467)" class="st7 st4">a</text>
<text transform="matrix(1 0 0 1 300.4507 435.3467)" class="st7 st4"> </text>
<text transform="matrix(1 0 0 1 303.6069 435.3467)" class="st7 st4">fluid</text>
<text transform="matrix(1 0 0 1 325.8311 435.3467)" class="st7 st4"> </text>
<text transform="matrix(1 0 0 1 328.9873 435.3467)" class="st7 st4">user</text>
<text transform="matrix(1 0 0 1 350.4785 435.3467)" class="st7 st4"> </text>
<text transform="matrix(1 0 0 1 353.6348 435.3467)"><tspan x="0" y="0" class="st7 st4">inte</tspan><tspan x="19.36" y="0" class="st7 st4">r</tspan><tspan x="23.62" y="0" class="st7 st4">f</tspan><tspan x="27.32" y="0" class="st7 st4">ace</tspan></text>
<text transform="matrix(1 0 0 1 398.0176 435.3467)" class="st7 st4"> </text>
<text transform="matrix(1 0 0 1 401.1738 435.3467)" class="st7 st4">using</text>
<text transform="matrix(1 0 0 1 427.7422 435.3467)" class="st7 st4"> </text>
<text transform="matrix(1 0 0 1 430.8975 435.3467)"><tspan x="0" y="0" class="st7 st4">Rea</tspan><tspan x="18.6" y="0" class="st7 st4">c</tspan><tspan x="24.1" y="0" class="st7 st4">t.</tspan></text>
<text transform="matrix(1 0 0 1 57.3306 449.7461)" class="st7 st4">•Created</text>
<text transform="matrix(1 0 0 1 107.1069 449.7461)" class="st7 st4"> </text>
<text transform="matrix(1 0 0 1 110.2627 449.7461)"><tspan x="0" y="0" class="st7 st4">C</tspan><tspan x="6.84" y="0" class="st7 st4">R</tspan><tspan x="13.66" y="0" class="st7 st4">UD</tspan></text>
<text transform="matrix(1 0 0 1 139.5537 449.7461)" class="st7 st4"> </text>
<text transform="matrix(1 0 0 1 142.7095 449.7461)"><tspan x="0" y="0" class="st7 st4">ope</tspan><tspan x="18.95" y="0" class="st7 st4">r</tspan><tspan x="22.97" y="0" class="st7 st4">ations</tspan></text>
<text transform="matrix(1 0 0 1 196.0854 449.7461)" class="st7 st4"> </text>
<text transform="matrix(1 0 0 1 199.2417 449.7461)" class="st7 st4">in</text>
<text transform="matrix(1 0 0 1 208.3975 449.7461)" class="st7 st4"> </text>
<text transform="matrix(1 0 0 1 211.5537 449.7461)"><tspan x="0" y="0" class="st7 st4">Rea</tspan><tspan x="18.6" y="0" class="st7 st4">c</tspan><tspan x="24.1" y="0" class="st7 st4">t</tspan></text>
<text transform="matrix(1 0 0 1 239.8604 449.7461)" class="st7 st4"> </text>
<text transform="matrix(1 0 0 1 243.0166 449.7461)" class="st7 st4">with</text>
<text transform="matrix(1 0 0 1 265.1084 449.7461)" class="st7 st4"> </text>
<text transform="matrix(1 0 0 1 268.2646 449.7461)" class="st7 st4">Axios</text>
<text transform="matrix(1 0 0 1 295.3604 449.7461)" class="st7 st4"> </text>
<text transform="matrix(1 0 0 1 298.5166 449.7461)" class="st7 st4">using</text>
<text transform="matrix(1 0 0 1 325.084 449.7461)" class="st7 st4"> </text>
<text transform="matrix(1 0 0 1 328.2402 449.7461)" class="st7 st4">web</text>
<text transform="matrix(1 0 0 1 349.5166 449.7461)" class="st7 st4"> </text>
<text transform="matrix(1 0 0 1 352.6719 449.7461)" class="st7 st4">API</text>
<text transform="matrix(1 0 0 1 369.6758 449.7461)" class="st7 st4"> </text>
<text transform="matrix(1 0 0 1 372.832 449.7461)" class="st7 st4">with</text>
<text transform="matrix(1 0 0 1 394.9238 449.7461)" class="st7 st4"> </text>
<text transform="matrix(1 0 0 1 398.0801 449.7461)" class="st7 st4">the</text>
<text transform="matrix(1 0 0 1 414.7119 449.7461)" class="st7 st4"> </text>
<text transform="matrix(1 0 0 1 417.8682 449.7461)"><tspan x="0" y="0" class="st7 st4">fun</tspan><tspan x="16.67" y="0" class="st7 st4">c</tspan><tspan x="22.16" y="0" class="st7 st4">tionality</tspan></text>
<text transform="matrix(1 0 0 1 480.8994 449.7461)" class="st7 st4"> </text>
<text transform="matrix(1 0 0 1 484.0557 449.7461)" class="st7 st4">of</text>
<text transform="matrix(1 0 0 1 494.3398 449.7461)" class="st7 st4"> </text>
<text transform="matrix(1 0 0 1 497.4951 449.7461)" class="st7 st4">binding</text>
<text transform="matrix(1 0 0 1 57.3306 464.1465)" class="st7 st4">    </text>
<text transform="matrix(1 0 0 1 69.9546 464.1465)" class="st7 st4">records</text>
<text transform="matrix(1 0 0 1 107.5864 464.1465)" class="st7 st4"> </text>
<text transform="matrix(1 0 0 1 110.7422 464.1465)" class="st7 st4">from</text>
<text transform="matrix(1 0 0 1 134.814 464.1465)" class="st7 st4"> </text>
<text transform="matrix(1 0 0 1 137.9702 464.1465)" class="st7 st4">a</text>
<text transform="matrix(1 0 0 1 143.6343 464.1465)" class="st7 st4"> </text>
<text transform="matrix(1 0 0 1 146.79 464.1465)" class="st7 st4">database</text>
<text transform="matrix(1 0 0 1 192.042 464.1465)" class="st7 st4"> </text>
<text transform="matrix(1 0 0 1 195.1982 464.1465)" class="st7 st4">which</text>
<text transform="matrix(1 0 0 1 224.9219 464.1465)" class="st7 st4"> </text>
<text transform="matrix(1 0 0 1 228.0781 464.1465)" class="st7 st4">is</text>
<text transform="matrix(1 0 0 1 235.7822 464.1465)" class="st7 st4"> </text>
<text transform="matrix(1 0 0 1 238.938 464.1465)"><tspan x="0" y="0" class="st7 st4">pos</tspan><tspan x="17.93" y="0" class="st7 st4">t</tspan><tspan x="22.02" y="0" class="st7 st4">greSQL.</tspan></text>
<text transform="matrix(1 0 0 1 57.3306 486.1543)"><tspan x="0" y="0" class="st1 st4">Flixter Yoga Proje</tspan><tspan x="95.07" y="0" class="st1 st4">c</tspan><tspan x="100.81" y="0" class="st1 st4">ts</tspan></text>
<text transform="matrix(1 0 0 1 57.3306 500.5547)"><tspan x="0" y="0" class="st1 st4">h</tspan><tspan x="6.8" y="0" class="st1 st4">t</tspan><tspan x="11.22" y="0" class="st1 st4">tps:</tspan><tspan x="31.3" y="0" class="st1 st4 st12">/</tspan><tspan x="34.46" y="0" class="st1 st4">/</tspan><tspan x="38.71" y="0" class="st1 st4">flixte</tspan><tspan x="66.29" y="0" class="st1 st4">r</tspan><tspan x="70.63" y="0" class="st1 st4">-jenny-oh.herokuapp.com | h</tspan><tspan x="225.1" y="0" class="st1 st4">t</tspan><tspan x="229.51" y="0" class="st1 st4">tps:</tspan><tspan x="249.58" y="0" class="st1 st4 st12">/</tspan><tspan x="252.74" y="0" class="st1 st4">/</tspan><tspan x="256.29" y="0" class="st1 st4">github.com</tspan><tspan x="316.35" y="0" class="st1 st4">/</tspan><tspan x="319.77" y="0" class="st1 st4">JennyOh1004</tspan><tspan x="393.84" y="0" class="st1 st4">/</tspan><tspan x="398.08" y="0" class="st1 st4">flixter</tspan></text>
<text transform="matrix(1 0 0 1 57.3306 514.9541)"><tspan x="0" y="0" class="st7 st4">•D</tspan><tspan x="18.18" y="0" class="st7 st4">e</tspan><tspan x="24.12" y="0" class="st7 st4">veloped</tspan></text>
<text transform="matrix(1 0 0 1 121.5669 514.9541)" class="st7 st4"> </text>
<text transform="matrix(1 0 0 1 124.7227 514.9541)" class="st7 st4">a</text>
<text transform="matrix(1 0 0 1 130.3867 514.9541)" class="st7 st4"> </text>
<text transform="matrix(1 0 0 1 133.543 514.9541)" class="st7 st4">Video</text>
<text transform="matrix(1 0 0 1 162.415 514.9541)" class="st7 st4"> </text>
<text transform="matrix(1 0 0 1 165.5708 514.9541)" class="st7 st4">Streaming</text>
<text transform="matrix(1 0 0 1 216.4985 514.9541)" class="st7 st4"> </text>
<text transform="matrix(1 0 0 1 219.6548 514.9541)"><tspan x="0" y="0" class="st7 st4">mark</tspan><tspan x="25.19" y="0" class="st7 st4">e</tspan><tspan x="31.24" y="0" class="st7 st4">tplace</tspan></text>
<text transform="matrix(1 0 0 1 281.4282 514.9541)" class="st7 st4"> </text>
<text transform="matrix(1 0 0 1 284.584 514.9541)"><tspan x="0" y="0" class="st7 st4">pla</tspan><tspan x="14.93" y="0" class="st7 st4">t</tspan><tspan x="19.01" y="0" class="st7 st4">form,</tspan></text>
<text transform="matrix(1 0 0 1 330.375 514.9541)" class="st7 st4"> </text>
<text transform="matrix(1 0 0 1 333.5312 514.9541)" class="st7 st4">featuring</text>
<text transform="matrix(1 0 0 1 379.0107 514.9541)" class="st7 st4"> </text>
<text transform="matrix(1 0 0 1 382.167 514.9541)" class="st7 st4">credit</text>
<text transform="matrix(1 0 0 1 411.1826 514.9541)" class="st7 st4"> </text>
<text transform="matrix(1 0 0 1 414.3389 514.9541)" class="st7 st4">card</text>
<text transform="matrix(1 0 0 1 436.0947 514.9541)" class="st7 st4"> </text>
<text transform="matrix(1 0 0 1 439.251 514.9541)" class="st7 st4">payment</text>
<text transform="matrix(1 0 0 1 483.5068 514.9541)" class="st7 st4"> </text>
<text transform="matrix(1 0 0 1 486.6621 514.9541)" class="st7 st4">capabilities,</text>
<text transform="matrix(1 0 0 1 545.2588 514.9541)" class="st7 st4"> </text>
<text transform="matrix(1 0 0 1 57.3306 529.3545)" class="st7 st4">user</text>
<text transform="matrix(1 0 0 1 78.8223 529.3545)" class="st7 st4"> </text>
<text transform="matrix(1 0 0 1 81.9785 529.3545)" class="st7 st4">role</text>
<text transform="matrix(1 0 0 1 101.2627 529.3545)" class="st7 st4"> </text>
<text transform="matrix(1 0 0 1 104.4185 529.3545)"><tspan x="0" y="0" class="st7 st4">man</tspan><tspan x="21.73" y="0" class="st7 st4">a</tspan><tspan x="27.34" y="0" class="st7 st4">gemen</tspan><tspan x="61.48" y="0" class="st7 st4">t</tspan><tspan x="65.8" y="0" class="st7 st4">,</tspan></text>
<text transform="matrix(1 0 0 1 172.9248 529.3545)" class="st7 st4"> </text>
<text transform="matrix(1 0 0 1 176.0811 529.3545)"><tspan x="0" y="0" class="st7 st4">compl</tspan><tspan x="30.71" y="0" class="st7 st4">e</tspan><tspan x="36.59" y="0" class="st7 st4">x</tspan></text>
<text transform="matrix(1 0 0 1 218.3916 529.3545)" class="st7 st4"> </text>
<text transform="matrix(1 0 0 1 221.5479 529.3545)" class="st7 st4">user</text>
<text transform="matrix(1 0 0 1 243.0396 529.3545)" class="st7 st4"> </text>
<text transform="matrix(1 0 0 1 246.1958 529.3545)"><tspan x="0" y="0" class="st7 st4">inte</tspan><tspan x="19.36" y="0" class="st7 st4">r</tspan><tspan x="23.62" y="0" class="st7 st4">f</tspan><tspan x="27.32" y="0" class="st7 st4">aces</tspan></text>
<text transform="matrix(1 0 0 1 295.5635 529.3545)" class="st7 st4"> </text>
<text transform="matrix(1 0 0 1 298.7192 529.3545)" class="st7 st4">and</text>
<text transform="matrix(1 0 0 1 317.3555 529.3545)" class="st7 st4"> </text>
<text transform="matrix(1 0 0 1 320.5117 529.3545)"><tspan x="0" y="0" class="st7 st4">ad</tspan><tspan x="12.2" y="0" class="st7 st4">v</tspan><tspan x="17.93" y="0" class="st7 st4">anced</tspan></text>
<text transform="matrix(1 0 0 1 368.4727 529.3545)" class="st7 st4"> </text>
<text transform="matrix(1 0 0 1 371.6289 529.3545)" class="st7 st4">database</text>
<text transform="matrix(1 0 0 1 416.8809 529.3545)" class="st7 st4"> </text>
<text transform="matrix(1 0 0 1 420.0371 529.3545)" class="st7 st4">relationship</text>
<text transform="matrix(1 0 0 1 479.0166 529.3545)" class="st7 st4"> </text>
<text transform="matrix(1 0 0 1 482.1729 529.3545)" class="st7 st4">using</text>
<text transform="matrix(1 0 0 1 508.7402 529.3545)" class="st7 st4"> </text>
<text transform="matrix(1 0 0 1 511.8965 529.3545)"><tspan x="0" y="0" class="st7 st4">R</tspan><tspan x="6.82" y="0" class="st7 st4">uby</tspan></text>
<text transform="matrix(1 0 0 1 537.3945 529.3545)" class="st7 st4"> </text>
<text transform="matrix(1 0 0 1 540.5498 529.3545)" class="st7 st4">on</text>
<text transform="matrix(1 0 0 1 553.3906 529.3545)" class="st7 st4"> </text>
<text transform="matrix(1 0 0 1 57.3306 543.7549)"><tspan x="0" y="0" class="st7 st4">R</tspan><tspan x="6.89" y="0" class="st7 st4">ails,</tspan></text>
<text transform="matrix(1 0 0 1 83.0107 543.7549)" class="st7 st4"> </text>
<text transform="matrix(1 0 0 1 86.167 543.7549)" class="st7 st4">HTML,</text>
<text transform="matrix(1 0 0 1 119.0352 543.7549)" class="st7 st4"> </text>
<text transform="matrix(1 0 0 1 122.1909 543.7549)" class="st7 st4">CSS,</text>
<text transform="matrix(1 0 0 1 143.8389 543.7549)" class="st7 st4"> </text>
<text transform="matrix(1 0 0 1 146.9951 543.7549)"><tspan x="0" y="0" class="st7 st4">J</tspan><tspan x="4.96" y="0" class="st7 st4">a</tspan><tspan x="10.57" y="0" class="st7 st4">v</tspan><tspan x="16.31" y="0" class="st7 st4">aScrip</tspan><tspan x="46.83" y="0" class="st7 st4">t</tspan><tspan x="51.14" y="0" class="st7 st4">,</tspan></text>
<text transform="matrix(1 0 0 1 200.8364 543.7549)" class="st7 st4"> </text>
<text transform="matrix(1 0 0 1 203.9927 543.7549)" class="st7 st4">and</text>
<text transform="matrix(1 0 0 1 222.6284 543.7549)" class="st7 st4"> </text>
<text transform="matrix(1 0 0 1 225.7842 543.7549)"><tspan x="0" y="0" class="st7 st4">Bootst</tspan><tspan x="33.23" y="0" class="st7 st4">r</tspan><tspan x="37.25" y="0" class="st7 st4">ap.</tspan></text>
<text transform="matrix(1 0 0 1 56.6948 568.8584)"><tspan x="0" y="0" class="st1 st4">Yelp Clone Proje</tspan><tspan x="87.85" y="0" class="st1 st4">c</tspan><tspan x="93.59" y="0" class="st1 st4">ts</tspan></text>
<text transform="matrix(1 0 0 1 56.6948 583.2588)"><tspan x="0" y="0" class="st1 st4">h</tspan><tspan x="6.8" y="0" class="st1 st4">t</tspan><tspan x="11.22" y="0" class="st1 st4">tps:</tspan><tspan x="31.3" y="0" class="st1 st4 st12">/</tspan><tspan x="34.46" y="0" class="st1 st4">/nomste</tspan><tspan x="78.71" y="0" class="st1 st4">r</tspan><tspan x="83.05" y="0" class="st1 st4">-jenny-oh.herokuapp.com | h</tspan><tspan x="237.52" y="0" class="st1 st4">t</tspan><tspan x="241.93" y="0" class="st1 st4">tps:</tspan><tspan x="262" y="0" class="st1 st4 st12">/</tspan><tspan x="265.16" y="0" class="st1 st4">/</tspan><tspan x="268.71" y="0" class="st1 st4">github.com</tspan><tspan x="328.77" y="0" class="st1 st4">/</tspan><tspan x="332.19" y="0" class="st1 st4">JennyOh1004/Nomster</tspan></text>
<text transform="matrix(1 0 0 1 56.6948 597.6582)" class="st7 st4">•Built</text>
<text transform="matrix(1 0 0 1 90.1147 597.6582)" class="st7 st4"> </text>
<text transform="matrix(1 0 0 1 93.271 597.6582)" class="st7 st4">a</text>
<text transform="matrix(1 0 0 1 98.9351 597.6582)" class="st7 st4"> </text>
<text transform="matrix(1 0 0 1 102.0908 597.6582)" class="st7 st4">Yelp</text>
<text transform="matrix(1 0 0 1 124.0269 597.6582)" class="st7 st4"> </text>
<text transform="matrix(1 0 0 1 127.1831 597.6582)" class="st7 st4">Clone</text>
<text transform="matrix(1 0 0 1 155.5869 597.6582)" class="st7 st4"> </text>
<text transform="matrix(1 0 0 1 158.7432 597.6582)" class="st7 st4">that</text>
<text transform="matrix(1 0 0 1 179.2393 597.6582)" class="st7 st4"> </text>
<text transform="matrix(1 0 0 1 182.395 597.6582)"><tspan x="0" y="0" class="st7 st4">integ</tspan><tspan x="25.43" y="0" class="st7 st4">r</tspan><tspan x="29.45" y="0" class="st7 st4">ates</tspan></text>
<text transform="matrix(1 0 0 1 232.6846 597.6582)" class="st7 st4"> </text>
<text transform="matrix(1 0 0 1 235.8408 597.6582)" class="st7 st4">with</text>
<text transform="matrix(1 0 0 1 257.9326 597.6582)" class="st7 st4"> </text>
<text transform="matrix(1 0 0 1 261.0889 597.6582)" class="st7 st4">the</text>
<text transform="matrix(1 0 0 1 277.7207 597.6582)" class="st7 st4"> </text>
<text transform="matrix(1 0 0 1 280.877 597.6582)" class="st7 st4">Google</text>
<text transform="matrix(1 0 0 1 316.085 597.6582)" class="st7 st4"> </text>
<text transform="matrix(1 0 0 1 319.2402 597.6582)" class="st7 st4">Maps</text>
<text transform="matrix(1 0 0 1 345.9766 597.6582)" class="st7 st4"> </text>
<text transform="matrix(1 0 0 1 349.1328 597.6582)" class="st7 st4">API</text>
<text transform="matrix(1 0 0 1 366.1367 597.6582)" class="st7 st4"> </text>
<text transform="matrix(1 0 0 1 369.293 597.6582)" class="st7 st4">and</text>
<text transform="matrix(1 0 0 1 387.9287 597.6582)" class="st7 st4"> </text>
<text transform="matrix(1 0 0 1 391.084 597.6582)" class="st7 st4">includes</text>
<text transform="matrix(1 0 0 1 432.2441 597.6582)" class="st7 st4"> </text>
<text transform="matrix(1 0 0 1 435.4004 597.6582)" class="st7 st4">features</text>
<text transform="matrix(1 0 0 1 476.6318 597.6582)" class="st7 st4"> </text>
<text transform="matrix(1 0 0 1 479.7881 597.6582)" class="st7 st4">such</text>
<text transform="matrix(1 0 0 1 502.96 597.6582)" class="st7 st4"> </text>
<text transform="matrix(1 0 0 1 506.1162 597.6582)" class="st7 st4">as</text>
<text transform="matrix(1 0 0 1 516.7598 597.6582)" class="st7 st4"> </text>
<text transform="matrix(1 0 0 1 519.916 597.6582)" class="st7 st4">user</text>
<text transform="matrix(1 0 0 1 541.4082 597.6582)" class="st7 st4"> </text>
<text transform="matrix(1 0 0 1 56.6948 612.0586)" class="st7 st4">comments,</text>
<text transform="matrix(1 0 0 1 112.0981 612.0586)" class="st7 st4"> </text>
<text transform="matrix(1 0 0 1 115.2544 612.0586)" class="st7 st4">star</text>
<text transform="matrix(1 0 0 1 134.2505 612.0586)" class="st7 st4"> </text>
<text transform="matrix(1 0 0 1 137.4062 612.0586)"><tspan x="0" y="0" class="st7 st4">r</tspan><tspan x="4.02" y="0" class="st7 st4">atings,</tspan></text>
<text transform="matrix(1 0 0 1 174.209 612.0586)" class="st7 st4"> </text>
<text transform="matrix(1 0 0 1 177.3647 612.0586)"><tspan x="0" y="0" class="st7 st4">im</tspan><tspan x="12.36" y="0" class="st7 st4">a</tspan><tspan x="17.96" y="0" class="st7 st4">ge</tspan></text>
<text transform="matrix(1 0 0 1 207.3999 612.0586)" class="st7 st4"> </text>
<text transform="matrix(1 0 0 1 210.5557 612.0586)" class="st7 st4">uploading,</text>
<text transform="matrix(1 0 0 1 262.7314 612.0586)" class="st7 st4"> </text>
<text transform="matrix(1 0 0 1 265.8877 612.0586)" class="st7 st4">and</text>
<text transform="matrix(1 0 0 1 284.5234 612.0586)" class="st7 st4"> </text>
<text transform="matrix(1 0 0 1 287.6797 612.0586)" class="st7 st4">user</text>
<text transform="matrix(1 0 0 1 309.1719 612.0586)" class="st7 st4"> </text>
<text transform="matrix(1 0 0 1 312.3271 612.0586)" class="st7 st4">authentication.</text>
<text transform="matrix(1 0 0 1 56.6948 626.458)" class="st7 st4">•Created</text>
<text transform="matrix(1 0 0 1 106.4707 626.458)" class="st7 st4"> </text>
<text transform="matrix(1 0 0 1 109.627 626.458)" class="st7 st4">web</text>
<text transform="matrix(1 0 0 1 130.9028 626.458)" class="st7 st4"> </text>
<text transform="matrix(1 0 0 1 134.0586 626.458)" class="st7 st4">application</text>
<text transform="matrix(1 0 0 1 189.0786 626.458)" class="st7 st4"> </text>
<text transform="matrix(1 0 0 1 192.2349 626.458)" class="st7 st4">using</text>
<text transform="matrix(1 0 0 1 218.8027 626.458)" class="st7 st4"> </text>
<text transform="matrix(1 0 0 1 221.9585 626.458)"><tspan x="0" y="0" class="st7 st4">R</tspan><tspan x="6.82" y="0" class="st7 st4">uby</tspan></text>
<text transform="matrix(1 0 0 1 247.4561 626.458)" class="st7 st4"> </text>
<text transform="matrix(1 0 0 1 250.6123 626.458)" class="st7 st4">on</text>
<text transform="matrix(1 0 0 1 263.4521 626.458)" class="st7 st4"> </text>
<text transform="matrix(1 0 0 1 266.6084 626.458)"><tspan x="0" y="0" class="st7 st4">R</tspan><tspan x="6.88" y="0" class="st7 st4">ails,</tspan></text>
<text transform="matrix(1 0 0 1 292.2871 626.458)" class="st7 st4"> </text>
<text transform="matrix(1 0 0 1 295.4429 626.458)" class="st7 st4">HTML,</text>
<text transform="matrix(1 0 0 1 328.3115 626.458)" class="st7 st4"> </text>
<text transform="matrix(1 0 0 1 331.4668 626.458)" class="st7 st4">CSS,</text>
<text transform="matrix(1 0 0 1 353.1152 626.458)" class="st7 st4"> </text>
<text transform="matrix(1 0 0 1 356.2715 626.458)"><tspan x="0" y="0" class="st7 st4">J</tspan><tspan x="4.96" y="0" class="st7 st4">a</tspan><tspan x="10.57" y="0" class="st7 st4">v</tspan><tspan x="16.31" y="0" class="st7 st4">aScrip</tspan><tspan x="46.83" y="0" class="st7 st4">t</tspan><tspan x="51.14" y="0" class="st7 st4">,</tspan></text>
<text transform="matrix(1 0 0 1 410.1123 626.458)" class="st7 st4"> </text>
<text transform="matrix(1 0 0 1 413.2686 626.458)" class="st7 st4">and</text>
<text transform="matrix(1 0 0 1 431.9043 626.458)" class="st7 st4"> </text>
<text transform="matrix(1 0 0 1 435.0605 626.458)"><tspan x="0" y="0" class="st7 st4">Bootst</tspan><tspan x="33.23" y="0" class="st7 st4">r</tspan><tspan x="37.25" y="0" class="st7 st4">ap.</tspan></text>
</svg>
