<svg id="레이어_1" data-name="레이어 1" xmlns="http://www.w3.org/2000/svg" viewBox="0 0 501.82 720.19"><defs><style>.cls-1,.cls-2{font-size:22.99px;}.cls-1{fill:#e77e75;}.cls-1,.cls-11,.cls-2,.cls-3,.cls-50{font-family:AppleSDGothicNeo-Bold-KSCpc-EUC-H, Apple SD Gothic Neo;}.cls-11,.cls-29,.cls-3,.cls-5,.cls-50,.cls-55,.cls-71{font-size:12px;}.cls-11,.cls-3{fill:#e78176;}.cls-12,.cls-3{letter-spacing:0.1em;}.cls-4{letter-spacing:0em;}.cls-5{fill:#e62465;}.cls-13,.cls-29,.cls-5,.cls-71,.cls-8{font-family:AppleSDGothicNeo-Regular-KSCpc-EUC-H, Apple SD Gothic Neo;}.cls-6{letter-spacing:2.35em;}.cls-7{letter-spacing:2.74em;}.cls-13,.cls-8{font-size:10px;}.cls-9{letter-spacing:-0.01em;}.cls-10{letter-spacing:0em;}.cls-13,.cls-86{letter-spacing:-0.01em;}.cls-14{letter-spacing:0em;}.cls-15{letter-spacing:0.1em;}.cls-16{letter-spacing:0.04em;}.cls-17{letter-spacing:0.52em;}.cls-18{letter-spacing:2.74em;}.cls-19{letter-spacing:-0.01em;}.cls-20{letter-spacing:-0.09em;}.cls-21{letter-spacing:-0.02em;}.cls-22{letter-spacing:0em;}.cls-23{letter-spacing:-0.06em;}.cls-24{letter-spacing:-0.07em;}.cls-25{letter-spacing:0em;}.cls-26{letter-spacing:0.04em;}.cls-27{letter-spacing:0.1em;}.cls-28{letter-spacing:0em;}.cls-30{letter-spacing:-0.01em;}.cls-31{letter-spacing:-0.05em;}.cls-32{letter-spacing:-0.01em;}.cls-33{letter-spacing:-0.03em;}.cls-34{letter-spacing:0.01em;}.cls-35{letter-spacing:0.08em;}.cls-36{letter-spacing:0.04em;}.cls-37{letter-spacing:0.02em;}.cls-38{letter-spacing:0.03em;}.cls-39{letter-spacing:0.04em;}.cls-40{letter-spacing:0.03em;}.cls-41{letter-spacing:0.04em;}.cls-42{letter-spacing:0.05em;}.cls-43{letter-spacing:0.05em;}.cls-44{letter-spacing:0.05em;}.cls-45{letter-spacing:0.03em;}.cls-46{letter-spacing:0.04em;}.cls-47{letter-spacing:0.03em;}.cls-48{letter-spacing:-0.01em;}.cls-49{letter-spacing:-0.07em;}.cls-51{letter-spacing:0.01em;}.cls-52{letter-spacing:-0.09em;}.cls-53{letter-spacing:-0.03em;}.cls-54{letter-spacing:0em;}.cls-55{font-family:AppleSDGothicNeo-Medium-KSCpc-EUC-H, Apple SD Gothic Neo;}.cls-56{letter-spacing:-0.02em;}.cls-57{letter-spacing:0.01em;}.cls-58{fill:none;stroke:#1a0305;stroke-width:0.5px;}.cls-59{letter-spacing:-0.02em;}.cls-60{letter-spacing:0.01em;}.cls-61{letter-spacing:0.01em;}.cls-62{letter-spacing:0em;}.cls-63{letter-spacing:-0.02em;}.cls-64{letter-spacing:0em;}.cls-65,.cls-71{letter-spacing:0em;}.cls-66{letter-spacing:-0.01em;}.cls-67{letter-spacing:0em;}.cls-68{letter-spacing:0.01em;}.cls-69{letter-spacing:-0.01em;}.cls-70{letter-spacing:0.08em;}.cls-72{letter-spacing:-0.01em;}.cls-73{letter-spacing:0em;}.cls-74{letter-spacing:-0.01em;}.cls-75{letter-spacing:0.08em;}.cls-76{letter-spacing:-0.01em;}.cls-77{letter-spacing:-0.09em;}.cls-78{letter-spacing:-0.06em;}.cls-79{letter-spacing:-0.07em;}.cls-80{letter-spacing:-0.03em;}.cls-81{letter-spacing:-0.01em;}.cls-82{letter-spacing:-0.01em;}.cls-83{letter-spacing:-0.1em;}.cls-84{letter-spacing:0.01em;}.cls-85{letter-spacing:-0.02em;}.cls-87{letter-spacing:-0.01em;}</style></defs><text class="cls-1" transform="translate(0 18.4)">JENNY</text><text class="cls-2" transform="translate(69.28 18.4)"><tspan xml:space="preserve"> OH</tspan></text><text class="cls-3" transform="translate(0 51.19)">EMAI<tspan class="cls-4" x="33.11" y="0">L</tspan></text><text class="cls-5" transform="translate(40.63 51.19)"><tspan class="cls-6"> </tspan><tspan class="cls-7" x="31.37" y="0" xml:space="preserve">   </tspan><tspan x="139.37" y="0"> </tspan></text><text class="cls-8" transform="translate(0 63.59)">ohseulki1004<tspan class="cls-9" x="56.19" y="0">@</tspan><tspan class="cls-10" x="64.92" y="0">gmail.com</tspan></text><text class="cls-11" transform="translate(0 83.19)"><tspan class="cls-12">MOBIL</tspan><tspan x="41.96" y="0">E</tspan></text><text class="cls-8" transform="translate(0 95.59)">+1</text><text class="cls-8" transform="translate(9 95.59)"> </text><text class="cls-13" transform="translate(11.63 95.59)">9<tspan class="cls-14" x="5.45" y="0">19</tspan></text><text class="cls-8" transform="translate(26.18 95.59)"> </text><text class="cls-8" transform="translate(28.81 95.59)">564</text><text class="cls-8" transform="translate(44.89 95.59)"> </text><text class="cls-8" transform="translate(47.52 95.59)"><tspan class="cls-9">8</tspan><tspan x="5.65" y="0">286</tspan></text><text class="cls-11" transform="translate(262.77 18.67)"><tspan class="cls-15">WEB</tspan><tspan class="cls-16" x="28.8" y="0">P</tspan><tspan class="cls-12" x="36.44" y="0">AG</tspan><tspan x="54.55" y="0">E</tspan></text><text class="cls-5" transform="translate(325.42 18.67)"><tspan class="cls-17"> </tspan><tspan class="cls-18" x="9.35" y="0" xml:space="preserve">    </tspan><tspan x="153.35" y="0"> </tspan></text><text class="cls-8" transform="translate(262.77 31.07)">h<tspan class="cls-19" x="5.36" y="0">t</tspan><tspan x="8.77" y="0">tp:</tspan><tspan class="cls-20" x="20.56" y="0">/</tspan><tspan class="cls-21" x="23.07" y="0">/</tspan><tspan x="26.23" y="0">www.jennyseulkioh.com</tspan></text><text class="cls-3" transform="translate(262.77 50.67)">GITHU<tspan class="cls-22" x="40.82" y="0">B</tspan></text><text class="cls-8" transform="translate(262.77 63.07)">h<tspan class="cls-19" x="5.36" y="0">t</tspan><tspan x="8.77" y="0">tps:</tspan><tspan class="cls-20" x="24.71" y="0">/</tspan><tspan class="cls-23" x="27.22" y="0">/</tspan><tspan x="30.01" y="0">github.com</tspan><tspan class="cls-24" x="77.08" y="0">/</tspan><tspan x="79.73" y="0">JennyOh1004</tspan></text><text class="cls-11" transform="translate(262.77 82.67)"><tspan class="cls-15">LINKEDI</tspan><tspan x="52.72" y="0">N</tspan></text><text class="cls-8" transform="translate(262.77 95.07)">h<tspan class="cls-19" x="5.36" y="0">t</tspan><tspan x="8.77" y="0">tps:</tspan><tspan class="cls-20" x="24.71" y="0">/</tspan><tspan class="cls-21" x="27.22" y="0">/</tspan><tspan class="cls-25" x="30.38" y="0">www.linkedin.com/in/seulkioh1004</tspan></text><text class="cls-3" transform="translate(0 601.39)">EDUC<tspan class="cls-26" x="35.05" y="0">A</tspan><tspan class="cls-27" x="43.34" y="0">TIO</tspan><tspan class="cls-28" x="65.87" y="0">N</tspan></text><text class="cls-29" transform="translate(0 615.79)">University</text><text class="cls-29" transform="translate(50.74 615.79)"> </text><text class="cls-29" transform="translate(53.89 615.79)">of</text><text class="cls-29" transform="translate(64.18 615.79)"> </text><text class="cls-29" transform="translate(67.33 615.79)">California</text><text class="cls-29" transform="translate(114.54 615.79)"> </text><text class="cls-29" transform="translate(117.7 615.79)">Berkeley</text><text class="cls-29" transform="translate(161.12 615.79)"> </text><text class="cls-29" transform="translate(164.28 615.79)"><tspan class="cls-30">E</tspan><tspan x="6.48" y="0">xtension</tspan></text><text class="cls-29" transform="translate(0 630.19)">•<tspan class="cls-31" x="10.38" y="0">F</tspan><tspan x="16.02" y="0">ull-Stack</tspan></text><text class="cls-29" transform="translate(60.05 630.19)"> </text><text class="cls-29" transform="translate(63.2 630.19)">Web</text><text class="cls-29" transform="translate(85.98 630.19)"> </text><text class="cls-29" transform="translate(89.14 630.19)">D<tspan class="cls-32" x="7.8" y="0">e</tspan><tspan x="13.74" y="0">velopment</tspan></text><text class="cls-29" transform="translate(0 658.99)"><tspan class="cls-33">W</tspan><tspan x="9.92" y="0">ake</tspan></text><text class="cls-29" transform="translate(27.31 658.99)"> </text><text class="cls-29" transform="translate(30.47 658.99)">Tech</text><text class="cls-29" transform="translate(54.83 658.99)"> </text><text class="cls-29" transform="translate(57.98 658.99)">Community</text><text class="cls-29" transform="translate(116 658.99)"> </text><text class="cls-29" transform="translate(119.16 658.99)">College</text><text class="cls-29" transform="translate(0 673.39)">•Web</text><text class="cls-29" transform="translate(33.16 673.39)"> </text><text class="cls-29" transform="translate(36.31 673.39)">D<tspan class="cls-32" x="7.8" y="0">e</tspan><tspan x="13.74" y="0">velopment</tspan></text><text class="cls-29" transform="translate(0 702.19)">Baekseok</text><text class="cls-29" transform="translate(47.56 702.19)"> </text><text class="cls-29" transform="translate(50.71 702.19)">University</text><text class="cls-29" transform="translate(101.45 702.19)"> </text><text class="cls-29" transform="translate(104.6 702.19)">in</text><text class="cls-29" transform="translate(113.76 702.19)"> </text><text class="cls-29" transform="translate(116.92 702.19)">South</text><text class="cls-29" transform="translate(146.36 702.19)"> </text><text class="cls-29" transform="translate(149.52 702.19)">Korea</text><text class="cls-29" transform="translate(0 716.59)">•The</text><text class="cls-29" transform="translate(29.34 716.59)"> </text><text class="cls-29" transform="translate(32.5 716.59)">Bachelor</text><text class="cls-29" transform="translate(76.31 716.59)"> </text><text class="cls-29" transform="translate(79.46 716.59)">of</text><text class="cls-29" transform="translate(89.75 716.59)"> </text><text class="cls-29" transform="translate(92.9 716.59)">A<tspan class="cls-34" x="7.26" y="0">r</tspan><tspan x="11.51" y="0">ts</tspan></text><text class="cls-29" transform="translate(113.6 716.59)"> </text><text class="cls-29" transform="translate(116.76 716.59)">in</text><text class="cls-29" transform="translate(125.91 716.59)"> </text><text class="cls-29" transform="translate(129.07 716.59)">Tourism</text><text class="cls-11" transform="translate(0.05 211.26)"><tspan class="cls-27">T</tspan><tspan class="cls-35" x="8.05" y="0">E</tspan><tspan class="cls-27" x="15.89" y="0">CHNICAL SKILL</tspan><tspan x="113.19" y="0">S</tspan></text><text class="cls-29" transform="translate(0.05 225.66)"><tspan class="cls-36">HTML</tspan><tspan class="cls-37" x="32.17" y="0">5</tspan><tspan x="38.4" y="0">,</tspan></text><text class="cls-29" transform="translate(41.67 225.66)"> </text><text class="cls-29" transform="translate(46.38 225.66)"><tspan class="cls-36">CSS</tspan><tspan class="cls-37" x="20.45" y="0">3</tspan><tspan x="27.12" y="0">,</tspan></text><text class="cls-29" transform="translate(76.73 225.66)"> </text><text class="cls-29" transform="translate(81.43 225.66)"><tspan class="cls-38">J</tspan><tspan class="cls-39" x="5.46" y="0">a</tspan><tspan class="cls-40" x="11.57" y="0">v</tspan><tspan class="cls-41" x="17.78" y="0">aScrip</tspan><tspan class="cls-42" x="51.33" y="0">t</tspan><tspan x="56.15" y="0">,</tspan></text><text class="cls-29" transform="translate(140.82 225.66)"> </text><text class="cls-29" transform="translate(145.51 225.66)"><tspan class="cls-36">Rea</tspan><tspan class="cls-43" x="20.11" y="0">c</tspan><tspan class="cls-44" x="26.11" y="0">t</tspan><tspan x="30.94" y="0">,</tspan></text><text class="cls-29" transform="translate(179.67 225.66)"> </text><text class="cls-29" transform="translate(184.38 225.66)"><tspan class="cls-36">Redux</tspan><tspan x="34.08" y="0">,</tspan></text><text class="cls-29" transform="translate(221.68 225.66)"> </text><text class="cls-29" transform="translate(226.38 225.66)"><tspan class="cls-36">Webpack</tspan><tspan x="49.64" y="0">,</tspan></text><text class="cls-29" transform="translate(279.24 225.66)"> </text><text class="cls-29" transform="translate(283.94 225.66)"><tspan class="cls-36">Babel</tspan><tspan x="30.48" y="0">,</tspan></text><text class="cls-29" transform="translate(317.64 225.66)"> </text><text class="cls-29" transform="translate(322.34 225.66)"><tspan class="cls-45">R</tspan><tspan class="cls-46" x="7.32" y="0">uby</tspan><tspan x="27.52" y="0">,</tspan></text><text class="cls-29" transform="translate(353.08 225.66)"> </text><text class="cls-29" transform="translate(357.78 225.66)"><tspan class="cls-45">R</tspan><tspan class="cls-46" x="7.32" y="0">ub</tspan><tspan x="21.23" y="0">y</tspan></text><text class="cls-29" transform="translate(385.3 225.66)"> </text><text class="cls-29" transform="translate(390 225.66)"><tspan class="cls-36">o</tspan><tspan x="6.91" y="0">n</tspan></text><text class="cls-29" transform="translate(403.85 225.66)"> </text><text class="cls-29" transform="translate(408.55 225.66)"><tspan class="cls-39">R</tspan><tspan class="cls-36" x="7.38" y="0">ails</tspan><tspan x="25.49" y="0">,</tspan></text><text class="cls-29" transform="translate(437.26 225.66)"> </text><text class="cls-29" transform="translate(441.96 225.66)"><tspan class="cls-36">Bootst</tspan><tspan class="cls-47" x="36.25" y="0">r</tspan><tspan class="cls-36" x="40.78" y="0">ap</tspan><tspan x="53.99" y="0">,</tspan></text><text class="cls-29" transform="translate(498.66 225.66)"> </text><text class="cls-29" transform="translate(0.1 240.06)">Pos<tspan class="cls-48" x="18.02" y="0">t</tspan><tspan x="22.13" y="0">greSQL,</tspan></text><text class="cls-29" transform="translate(61.48 240.06)"> </text><text class="cls-29" transform="translate(64.63 240.06)">Adobe</text><text class="cls-29" transform="translate(97.38 240.06)"> </text><text class="cls-29" transform="translate(100.54 240.06)">Photoshop,</text><text class="cls-29" transform="translate(157.69 240.06)"> </text><text class="cls-29" transform="translate(160.85 240.06)">Adobe</text><text class="cls-29" transform="translate(193.6 240.06)"> </text><text class="cls-29" transform="translate(196.75 240.06)">Dreamwe<tspan class="cls-32" x="47.99" y="0">a</tspan><tspan x="53.59" y="0">ve</tspan><tspan class="cls-49" x="65.5" y="0">r</tspan><tspan x="68.84" y="0">,</tspan></text><text class="cls-29" transform="translate(268.3 240.06)"> </text><text class="cls-29" transform="translate(271.46 240.06)">Adobe</text><text class="cls-29" transform="translate(304.21 240.06)"> </text><text class="cls-29" transform="translate(307.36 240.06)">Animate</text><text class="cls-29" transform="translate(349.28 240.06)"> </text><text class="cls-29" transform="translate(352.44 240.06)">CC,</text><text class="cls-29" transform="translate(368.83 240.06)"> </text><text class="cls-29" transform="translate(371.98 240.06)">UI</text><text class="cls-29" transform="translate(382.93 240.06)"> </text><text class="cls-29" transform="translate(386.08 240.06)">MockUp,</text><text class="cls-29" transform="translate(430.27 240.06)"> </text><text class="cls-29" transform="translate(433.42 240.06)">Github</text><text class="cls-3" transform="translate(0.05 261.37)">EXPERIENC<tspan class="cls-4" x="72.68" y="0">E</tspan></text><text class="cls-50" transform="translate(0.05 275.77)">M<tspan class="cls-51" x="10.12" y="0">e</tspan><tspan x="16.55" y="0">tif Korea website - h</tspan><tspan class="cls-9" x="125.52" y="0">t</tspan><tspan x="129.92" y="0">tps:</tspan><tspan class="cls-52" x="150" y="0">/</tspan><tspan class="cls-53" x="153.17" y="0">/</tspan><tspan x="157.09" y="0">m</tspan><tspan class="cls-54" x="167.22" y="0">e</tspan><tspan x="173.64" y="0">ti</tspan><tspan class="cls-37" x="181.24" y="0">f</tspan><tspan class="cls-4" x="185.72" y="0">korea.shop</tspan></text><text class="cls-55" transform="translate(0.05 290.17)">•Created and maintained a consume<tspan class="cls-56" x="186.04" y="0">r</tspan><tspan x="189.87" y="0">-friendly Hair Cosm</tspan><tspan class="cls-54" x="287.13" y="0">e</tspan><tspan x="293.11" y="0">tics &amp; Accessory website and maintained </tspan></text><text class="cls-55" transform="translate(0.05 304.57)"><tspan xml:space="preserve">    a website using Content Man</tspan><tspan class="cls-32" x="157.33" y="0">a</tspan><tspan x="162.87" y="0">gement System.</tspan></text><text class="cls-55" transform="translate(0.05 318.97)">•Redesigned custom themes to improve the effe<tspan class="cls-57" x="247.5" y="0">c</tspan><tspan x="252.91" y="0">tiveness and accessibility of the website.</tspan></text><text class="cls-55" transform="translate(0.05 333.37)">•Refined requirements with client and created feature mockups.</text><line class="cls-58" x1="0.64" y1="110.92" x2="498.61" y2="110.92"/><text class="cls-3" transform="translate(0.64 132.77)">CAREER OBJ<tspan class="cls-35" x="80.03" y="0">E</tspan><tspan x="87.86" y="0">CTIV</tspan><tspan class="cls-4" x="117.75" y="0">E</tspan></text><text class="cls-29" transform="translate(0.64 147.17)">Web</text><text class="cls-29" transform="translate(23.41 147.17)"> </text><text class="cls-29" transform="translate(26.57 147.17)">D<tspan class="cls-32" x="7.8" y="0">e</tspan><tspan x="13.74" y="0">veloper</tspan></text><text class="cls-29" transform="translate(78.04 147.17)"> </text><text class="cls-29" transform="translate(81.19 147.17)">with</text><text class="cls-29" transform="translate(103.29 147.17)"> </text><text class="cls-29" transform="translate(106.44 147.17)">a</text><text class="cls-29" transform="translate(112.11 147.17)"> </text><text class="cls-29" transform="translate(115.26 147.17)">bac<tspan class="cls-59" x="17.6" y="0">k</tspan><tspan class="cls-4" x="23.1" y="0">ground</tspan></text><text class="cls-29" transform="translate(174.32 147.17)"> </text><text class="cls-29" transform="translate(177.48 147.17)">in</text><text class="cls-29" transform="translate(186.64 147.17)"> </text><text class="cls-29" transform="translate(189.79 147.17)">Tourism</text><text class="cls-29" transform="translate(230.58 147.17)"> </text><text class="cls-29" transform="translate(233.74 147.17)">and</text><text class="cls-29" transform="translate(252.37 147.17)"> </text><text class="cls-29" transform="translate(255.53 147.17)">Customer</text><text class="cls-29" transform="translate(304.1 147.17)"> </text><text class="cls-29" transform="translate(307.26 147.17)">Se<tspan class="cls-60" x="12.05" y="0">r</tspan><tspan x="16.31" y="0">vice.</tspan></text><text class="cls-29" transform="translate(346.32 147.17)"> </text><text class="cls-29" transform="translate(349.47 147.17)"><tspan class="cls-59">E</tspan><tspan x="6.36" y="0">ffe</tspan><tspan class="cls-61" x="20.11" y="0">c</tspan><tspan x="25.61" y="0">tive</tspan></text><text class="cls-29" transform="translate(393.91 147.17)"> </text><text class="cls-29" transform="translate(397.06 147.17)">at</text><text class="cls-29" transform="translate(406.93 147.17)"> </text><text class="cls-29" transform="translate(410.08 147.17)">combining</text><text class="cls-29" transform="translate(462.45 147.17)"> </text><text class="cls-29" transform="translate(0.64 161.57)">creativity</text><text class="cls-29" transform="translate(47.39 161.57)"> </text><text class="cls-29" transform="translate(50.55 161.57)">with</text><text class="cls-29" transform="translate(72.64 161.57)"> </text><text class="cls-29" transform="translate(75.79 161.57)">technology</text><text class="cls-29" transform="translate(131.65 161.57)"> </text><text class="cls-29" transform="translate(134.81 161.57)">to</text><text class="cls-29" transform="translate(145.42 161.57)"> </text><text class="cls-29" transform="translate(148.57 161.57)">d<tspan class="cls-32" x="6.54" y="0">e</tspan><tspan x="12.48" y="0">velop</tspan></text><text class="cls-29" transform="translate(188.63 161.57)"> </text><text class="cls-29" transform="translate(191.78 161.57)">aesth<tspan class="cls-62" x="27.28" y="0">e</tspan><tspan x="33.32" y="0">tically</tspan></text><text class="cls-29" transform="translate(254.34 161.57)"> </text><text class="cls-29" transform="translate(257.49 161.57)">pleasing,</text><text class="cls-29" transform="translate(301.34 161.57)"> </text><text class="cls-29" transform="translate(304.5 161.57)">use<tspan class="cls-63" x="17.34" y="0">r</tspan><tspan class="cls-64" x="21.23" y="0">-friendly</tspan></text><text class="cls-29" transform="translate(369.14 161.57)"> </text><text class="cls-29" transform="translate(372.3 161.57)">web</text><text class="cls-29" transform="translate(393.57 161.57)"> </text><text class="cls-29" transform="translate(396.73 161.57)">applications.</text><text class="cls-29" transform="translate(459.44 161.57)"> </text><text class="cls-29" transform="translate(0.64 175.97)">Looking</text><text class="cls-29" transform="translate(40.48 175.97)"> </text><text class="cls-29" transform="translate(43.63 175.97)">to</text><text class="cls-29" transform="translate(54.24 175.97)"> </text><text class="cls-29" transform="translate(57.4 175.97)">l<tspan class="cls-65" x="2.72" y="0">e</tspan><tspan x="8.66" y="0">ve</tspan><tspan class="cls-66" x="20.57" y="0">r</tspan><tspan class="cls-67" x="24.59" y="0">a</tspan><tspan x="30.2" y="0">ge</tspan></text><text class="cls-29" transform="translate(99.66 175.97)"> </text><text class="cls-29" transform="translate(102.82 175.97)">the</text><text class="cls-29" transform="translate(119.45 175.97)"> </text><text class="cls-29" transform="translate(122.6 175.97)">creativity</text><text class="cls-29" transform="translate(169.36 175.97)"> </text><text class="cls-29" transform="translate(172.51 175.97)">and</text><text class="cls-29" transform="translate(191.15 175.97)"> </text><text class="cls-29" transform="translate(194.3 175.97)">customer</text><text class="cls-29" transform="translate(241.44 175.97)"> </text><text class="cls-29" transform="translate(244.6 175.97)">se<tspan class="cls-68" x="10.98" y="0">r</tspan><tspan class="cls-22" x="15.24" y="0">vice</tspan></text><text class="cls-29" transform="translate(279.87 175.97)"> </text><text class="cls-29" transform="translate(283.03 175.97)">bac<tspan class="cls-59" x="17.6" y="0">k</tspan><tspan x="23.1" y="0">ground</tspan></text><text class="cls-29" transform="translate(342.09 175.97)"> </text><text class="cls-29" transform="translate(345.25 175.97)">into</text><text class="cls-29" transform="translate(365.01 175.97)"> </text><text class="cls-29" transform="translate(368.17 175.97)">a</text><text class="cls-29" transform="translate(373.83 175.97)"> </text><text class="cls-29" transform="translate(376.99 175.97)">Fron<tspan class="cls-56" x="23.18" y="0">t</tspan><tspan x="27.13" y="0">-end</tspan></text><text class="cls-29" transform="translate(428.27 175.97)"> </text><text class="cls-29" transform="translate(431.43 175.97)">d<tspan class="cls-69" x="6.54" y="0">e</tspan><tspan x="12.48" y="0">veloper</tspan></text><text class="cls-29" transform="translate(481.64 175.97)"> </text><text class="cls-29" transform="translate(0.64 190.37)">role.</text><text class="cls-3" transform="translate(362.69 602.1)">CE<tspan class="cls-70" x="16.32" y="0">R</tspan><tspan x="24.77" y="0">TIFIC</tspan><tspan class="cls-36" x="58.18" y="0">A</tspan><tspan x="66.48" y="0">TION</tspan><tspan class="cls-64" x="98.55" y="0">S</tspan></text><text class="cls-29" transform="translate(362.69 616.5)">Microso<tspan class="cls-68" x="39.62" y="0">f</tspan><tspan x="43.61" y="0">t</tspan></text><text class="cls-29" transform="translate(410.5 616.5)"> </text><text class="cls-29" transform="translate(413.65 616.5)">CSS</text><text class="cls-29" transform="translate(432.59 616.5)"> </text><text class="cls-71" transform="translate(435.75 616.5)">2<tspan class="cls-72" x="6.34" y="0">0</tspan><tspan class="cls-22" x="13.79" y="0">19</tspan></text><text class="cls-29" transform="translate(460.45 616.5)"> </text><text class="cls-29" transform="translate(362.69 630.9)">Microso<tspan class="cls-68" x="39.62" y="0">f</tspan><tspan x="43.61" y="0">t</tspan></text><text class="cls-29" transform="translate(410.5 630.9)"> </text><text class="cls-29" transform="translate(413.65 630.9)">HTML</text><text class="cls-29" transform="translate(443.81 630.9)"> </text><text class="cls-71" transform="translate(446.97 630.9)">2<tspan class="cls-72" x="6.34" y="0">0</tspan><tspan class="cls-22" x="13.79" y="0">19</tspan></text><text class="cls-29" transform="translate(362.69 645.3)">Microso<tspan class="cls-68" x="39.62" y="0">f</tspan><tspan x="43.61" y="0">t</tspan></text><text class="cls-29" transform="translate(410.5 645.3)"> </text><text class="cls-29" transform="translate(413.65 645.3)"><tspan class="cls-72">J</tspan><tspan class="cls-73" x="4.96" y="0">a</tspan><tspan class="cls-74" x="10.57" y="0">v</tspan><tspan x="16.31" y="0">aScript</tspan></text><text class="cls-29" transform="translate(464.66 645.3)"> </text><text class="cls-71" transform="translate(467.82 645.3)">2<tspan class="cls-72" x="6.34" y="0">0</tspan><tspan class="cls-22" x="13.79" y="0">19</tspan></text><text class="cls-11" transform="translate(362.69 674.1)"><tspan class="cls-15">LANG</tspan><tspan class="cls-75" x="35.18" y="0">U</tspan><tspan class="cls-12" x="44.29" y="0">AGE</tspan><tspan x="70.49" y="0">S</tspan></text><text class="cls-29" transform="translate(362.69 688.5)">ENGLISH</text><text class="cls-29" transform="translate(408.11 688.5)"> </text><text class="cls-29" transform="translate(411.27 688.5)">-</text><text class="cls-29" transform="translate(416.45 688.5)"> </text><text class="cls-29" transform="translate(419.61 688.5)">Fluent</text><text class="cls-29" transform="translate(362.69 702.9)">KOREAN</text><text class="cls-29" transform="translate(406.69 702.9)"> </text><text class="cls-29" transform="translate(409.85 702.9)">-</text><text class="cls-29" transform="translate(415.03 702.9)"> </text><text class="cls-29" transform="translate(418.19 702.9)">Native</text><text class="cls-50" transform="translate(0.64 354.11)">Note App Proje<tspan class="cls-57" x="81.9" y="0">c</tspan><tspan x="87.63" y="0">ts</tspan></text><text class="cls-50" transform="translate(0.64 368.51)">h<tspan class="cls-76" x="6.8" y="0">t</tspan><tspan x="11.22" y="0">tps:</tspan><tspan class="cls-52" x="31.3" y="0">/</tspan><tspan x="34.46" y="0">/note-app-jenny-oh.herokuapp.com | h</tspan><tspan class="cls-9" x="242.14" y="0">t</tspan><tspan class="cls-4" x="246.55" y="0">tps:</tspan><tspan class="cls-77" x="266.62" y="0">/</tspan><tspan class="cls-78" x="269.79" y="0">/</tspan><tspan class="cls-64" x="273.34" y="0">github.com</tspan><tspan class="cls-79" x="333.4" y="0">/</tspan><tspan x="336.82" y="0">JennyOh1004</tspan><tspan class="cls-80" x="410.9" y="0">/</tspan><tspan x="414.81" y="0">my-note-app</tspan></text><text class="cls-29" transform="translate(0.64 382.91)">•D<tspan class="cls-32" x="18.18" y="0">e</tspan><tspan x="24.12" y="0">veloped</tspan></text><text class="cls-29" transform="translate(64.87 382.91)"> </text><text class="cls-29" transform="translate(68.03 382.91)">note-taking</text><text class="cls-29" transform="translate(127.08 382.91)"> </text><text class="cls-29" transform="translate(130.24 382.91)">web</text><text class="cls-29" transform="translate(151.51 382.91)"> </text><text class="cls-29" transform="translate(154.67 382.91)">application</text><text class="cls-29" transform="translate(209.69 382.91)"> </text><text class="cls-29" transform="translate(212.85 382.91)">with</text><text class="cls-29" transform="translate(234.94 382.91)"> </text><text class="cls-29" transform="translate(238.09 382.91)">a</text><text class="cls-29" transform="translate(243.76 382.91)"> </text><text class="cls-29" transform="translate(246.91 382.91)">fluid</text><text class="cls-29" transform="translate(269.14 382.91)"> </text><text class="cls-29" transform="translate(272.29 382.91)">user</text><text class="cls-29" transform="translate(293.79 382.91)"> </text><text class="cls-29" transform="translate(296.94 382.91)">inte<tspan class="cls-60" x="19.36" y="0">r</tspan><tspan class="cls-81" x="23.62" y="0">f</tspan><tspan x="27.32" y="0">ace</tspan></text><text class="cls-29" transform="translate(341.32 382.91)"> </text><text class="cls-29" transform="translate(344.48 382.91)">using</text><text class="cls-29" transform="translate(371.05 382.91)"> </text><text class="cls-29" transform="translate(374.2 382.91)">Rea<tspan class="cls-61" x="18.6" y="0">c</tspan><tspan x="24.1" y="0">t.</tspan></text><text class="cls-29" transform="translate(0.64 397.31)">•Created</text><text class="cls-29" transform="translate(50.41 397.31)"> </text><text class="cls-29" transform="translate(53.57 397.31)">C<tspan class="cls-9" x="6.84" y="0">R</tspan><tspan x="13.66" y="0">UD</tspan></text><text class="cls-29" transform="translate(82.86 397.31)"> </text><text class="cls-29" transform="translate(86.02 397.31)">ope<tspan class="cls-66" x="18.95" y="0">r</tspan><tspan class="cls-4" x="22.97" y="0">ations</tspan></text><text class="cls-29" transform="translate(139.39 397.31)"> </text><text class="cls-29" transform="translate(142.55 397.31)">in</text><text class="cls-29" transform="translate(151.7 397.31)"> </text><text class="cls-29" transform="translate(154.86 397.31)">Rea<tspan class="cls-34" x="18.6" y="0">c</tspan><tspan x="24.1" y="0">t</tspan></text><text class="cls-29" transform="translate(183.17 397.31)"> </text><text class="cls-29" transform="translate(186.32 397.31)">with</text><text class="cls-29" transform="translate(208.42 397.31)"> </text><text class="cls-29" transform="translate(211.57 397.31)">Axios</text><text class="cls-29" transform="translate(238.67 397.31)"> </text><text class="cls-29" transform="translate(241.82 397.31)">using</text><text class="cls-29" transform="translate(268.39 397.31)"> </text><text class="cls-29" transform="translate(271.55 397.31)">web</text><text class="cls-29" transform="translate(292.82 397.31)"> </text><text class="cls-29" transform="translate(295.98 397.31)">API</text><text class="cls-29" transform="translate(312.98 397.31)"> </text><text class="cls-29" transform="translate(316.14 397.31)">with</text><text class="cls-29" transform="translate(338.23 397.31)"> </text><text class="cls-29" transform="translate(341.39 397.31)">the</text><text class="cls-29" transform="translate(358.02 397.31)"> </text><text class="cls-29" transform="translate(361.18 397.31)">fun<tspan class="cls-61" x="16.67" y="0">c</tspan><tspan class="cls-22" x="22.16" y="0">tionality</tspan></text><text class="cls-29" transform="translate(424.21 397.31)"> </text><text class="cls-29" transform="translate(427.36 397.31)">of</text><text class="cls-29" transform="translate(437.65 397.31)"> </text><text class="cls-29" transform="translate(440.8 397.31)">binding</text><text class="cls-29" transform="translate(0.64 411.71)"><tspan xml:space="preserve">    </tspan></text><text class="cls-29" transform="translate(13.26 411.71)">records</text><text class="cls-29" transform="translate(50.89 411.71)"> </text><text class="cls-29" transform="translate(54.05 411.71)">from</text><text class="cls-29" transform="translate(78.12 411.71)"> </text><text class="cls-29" transform="translate(81.28 411.71)">a</text><text class="cls-29" transform="translate(86.94 411.71)"> </text><text class="cls-29" transform="translate(90.1 411.71)">database</text><text class="cls-29" transform="translate(135.35 411.71)"> </text><text class="cls-29" transform="translate(138.51 411.71)">which</text><text class="cls-29" transform="translate(168.23 411.71)"> </text><text class="cls-29" transform="translate(171.39 411.71)">is</text><text class="cls-29" transform="translate(179.09 411.71)"> </text><text class="cls-29" transform="translate(182.25 411.71)">pos<tspan class="cls-76" x="17.93" y="0">t</tspan><tspan class="cls-4" x="22.02" y="0">greSQL.</tspan></text><text class="cls-50" transform="translate(0.64 433.71)">Flixter Yoga Proje<tspan class="cls-57" x="95.07" y="0">c</tspan><tspan x="100.81" y="0">ts</tspan></text><text class="cls-50" transform="translate(0.64 448.11)">h<tspan class="cls-76" x="6.8" y="0">t</tspan><tspan x="11.22" y="0">tps:</tspan><tspan class="cls-52" x="31.3" y="0">/</tspan><tspan class="cls-67" x="34.46" y="0">/</tspan><tspan class="cls-4" x="38.71" y="0">flixte</tspan><tspan class="cls-82" x="66.29" y="0">r</tspan><tspan x="70.63" y="0">-jenny-oh.herokuapp.com | h</tspan><tspan class="cls-9" x="225.1" y="0">t</tspan><tspan class="cls-4" x="229.51" y="0">tps:</tspan><tspan class="cls-83" x="249.58" y="0">/</tspan><tspan class="cls-78" x="252.74" y="0">/</tspan><tspan class="cls-64" x="256.29" y="0">github.com</tspan><tspan class="cls-79" x="316.35" y="0">/</tspan><tspan x="319.77" y="0">JennyOh1004</tspan><tspan class="cls-65" x="393.84" y="0">/</tspan><tspan class="cls-22" x="398.08" y="0">flixter</tspan></text><text class="cls-29" transform="translate(0.64 462.51)">•D<tspan class="cls-32" x="18.18" y="0">e</tspan><tspan x="24.12" y="0">veloped</tspan></text><text class="cls-29" transform="translate(64.87 462.51)"> </text><text class="cls-29" transform="translate(68.03 462.51)">a</text><text class="cls-29" transform="translate(73.69 462.51)"> </text><text class="cls-29" transform="translate(76.85 462.51)">Video</text><text class="cls-29" transform="translate(105.72 462.51)"> </text><text class="cls-29" transform="translate(108.88 462.51)">Streaming</text><text class="cls-29" transform="translate(159.81 462.51)"> </text><text class="cls-29" transform="translate(162.96 462.51)">mark<tspan class="cls-62" x="25.19" y="0">e</tspan><tspan x="31.24" y="0">tplace</tspan></text><text class="cls-29" transform="translate(224.74 462.51)"> </text><text class="cls-29" transform="translate(227.89 462.51)">pla<tspan class="cls-9" x="14.93" y="0">t</tspan><tspan x="19.01" y="0">form,</tspan></text><text class="cls-29" transform="translate(273.68 462.51)"> </text><text class="cls-29" transform="translate(276.84 462.51)">featuring</text><text class="cls-29" transform="translate(322.32 462.51)"> </text><text class="cls-29" transform="translate(325.47 462.51)">credit</text><text class="cls-29" transform="translate(354.49 462.51)"> </text><text class="cls-29" transform="translate(357.65 462.51)">card</text><text class="cls-29" transform="translate(379.4 462.51)"> </text><text class="cls-29" transform="translate(382.56 462.51)">payment</text><text class="cls-29" transform="translate(426.81 462.51)"> </text><text class="cls-29" transform="translate(429.97 462.51)">capabilities,</text><text class="cls-29" transform="translate(488.57 462.51)"> </text><text class="cls-29" transform="translate(0.64 476.91)">user</text><text class="cls-29" transform="translate(22.13 476.91)"> </text><text class="cls-29" transform="translate(25.29 476.91)">role</text><text class="cls-29" transform="translate(44.57 476.91)"> </text><text class="cls-29" transform="translate(47.73 476.91)">man<tspan class="cls-32" x="21.73" y="0">a</tspan><tspan x="27.34" y="0">gemen</tspan><tspan class="cls-84" x="61.48" y="0">t</tspan><tspan x="65.8" y="0">,</tspan></text><text class="cls-29" transform="translate(116.23 476.91)"> </text><text class="cls-29" transform="translate(119.39 476.91)">compl<tspan class="cls-30" x="30.71" y="0">e</tspan><tspan x="36.59" y="0">x</tspan></text><text class="cls-29" transform="translate(161.7 476.91)"> </text><text class="cls-29" transform="translate(164.85 476.91)">user</text><text class="cls-29" transform="translate(186.35 476.91)"> </text><text class="cls-29" transform="translate(189.5 476.91)">inte<tspan class="cls-57" x="19.36" y="0">r</tspan><tspan class="cls-81" x="23.62" y="0">f</tspan><tspan x="27.32" y="0">aces</tspan></text><text class="cls-29" transform="translate(238.87 476.91)"> </text><text class="cls-29" transform="translate(242.03 476.91)">and</text><text class="cls-29" transform="translate(260.66 476.91)"> </text><text class="cls-29" transform="translate(263.82 476.91)">ad<tspan class="cls-85" x="12.2" y="0">v</tspan><tspan x="17.93" y="0">anced</tspan></text><text class="cls-29" transform="translate(311.78 476.91)"> </text><text class="cls-29" transform="translate(314.94 476.91)">database</text><text class="cls-29" transform="translate(360.19 476.91)"> </text><text class="cls-29" transform="translate(363.34 476.91)">relationship</text><text class="cls-29" transform="translate(422.32 476.91)"> </text><text class="cls-29" transform="translate(425.48 476.91)">using</text><text class="cls-29" transform="translate(452.05 476.91)"> </text><text class="cls-29" transform="translate(455.2 476.91)"><tspan class="cls-9">R</tspan><tspan x="6.82" y="0">uby</tspan></text><text class="cls-29" transform="translate(480.7 476.91)"> </text><text class="cls-29" transform="translate(483.86 476.91)">on</text><text class="cls-29" transform="translate(496.7 476.91)"> </text><text class="cls-29" transform="translate(0.64 491.31)"><tspan class="cls-67">R</tspan><tspan x="6.89" y="0">ails,</tspan></text><text class="cls-29" transform="translate(26.32 491.31)"> </text><text class="cls-29" transform="translate(29.47 491.31)">HTML,</text><text class="cls-29" transform="translate(62.34 491.31)"> </text><text class="cls-29" transform="translate(65.5 491.31)">CSS,</text><text class="cls-29" transform="translate(87.15 491.31)"> </text><text class="cls-29" transform="translate(90.3 491.31)"><tspan class="cls-76">J</tspan><tspan class="cls-73" x="4.96" y="0">a</tspan><tspan class="cls-81" x="10.57" y="0">v</tspan><tspan class="cls-4" x="16.31" y="0">aScrip</tspan><tspan class="cls-68" x="46.83" y="0">t</tspan><tspan x="51.14" y="0">,</tspan></text><text class="cls-29" transform="translate(144.14 491.31)"> </text><text class="cls-29" transform="translate(147.3 491.31)">and</text><text class="cls-29" transform="translate(165.94 491.31)"> </text><text class="cls-29" transform="translate(169.09 491.31)">Bootst<tspan class="cls-66" x="33.23" y="0">r</tspan><tspan class="cls-28" x="37.25" y="0">ap.</tspan></text><text class="cls-50" transform="translate(0 516.42)">Yelp Clone Proje<tspan class="cls-57" x="87.85" y="0">c</tspan><tspan x="93.59" y="0">ts</tspan></text><text class="cls-50" transform="translate(0 530.82)">h<tspan class="cls-76" x="6.8" y="0">t</tspan><tspan x="11.22" y="0">tps:</tspan><tspan class="cls-52" x="31.3" y="0">/</tspan><tspan x="34.46" y="0">/nomste</tspan><tspan class="cls-82" x="78.71" y="0">r</tspan><tspan x="83.05" y="0">-jenny-oh.herokuapp.com | h</tspan><tspan class="cls-9" x="237.52" y="0">t</tspan><tspan class="cls-4" x="241.93" y="0">tps:</tspan><tspan class="cls-83" x="262" y="0">/</tspan><tspan class="cls-78" x="265.16" y="0">/</tspan><tspan x="268.71" y="0">github.com</tspan><tspan class="cls-79" x="328.77" y="0">/</tspan><tspan x="332.19" y="0">JennyOh1004/Nomster</tspan></text><text class="cls-29" transform="translate(0 545.22)">•Built</text><text class="cls-29" transform="translate(33.42 545.22)"> </text><text class="cls-29" transform="translate(36.58 545.22)">a</text><text class="cls-29" transform="translate(42.24 545.22)"> </text><text class="cls-29" transform="translate(45.4 545.22)">Yelp</text><text class="cls-29" transform="translate(67.33 545.22)"> </text><text class="cls-29" transform="translate(70.49 545.22)">Clone</text><text class="cls-29" transform="translate(98.89 545.22)"> </text><text class="cls-29" transform="translate(102.05 545.22)">that</text><text class="cls-29" transform="translate(122.55 545.22)"> </text><text class="cls-29" transform="translate(125.7 545.22)">integ<tspan class="cls-66" x="25.43" y="0">r</tspan><tspan class="cls-28" x="29.45" y="0">ates</tspan></text><text class="cls-29" transform="translate(175.99 545.22)"> </text><text class="cls-29" transform="translate(179.15 545.22)">with</text><text class="cls-29" transform="translate(201.24 545.22)"> </text><text class="cls-29" transform="translate(204.4 545.22)">the</text><text class="cls-29" transform="translate(221.03 545.22)"> </text><text class="cls-29" transform="translate(224.18 545.22)">Google</text><text class="cls-29" transform="translate(259.39 545.22)"> </text><text class="cls-29" transform="translate(262.55 545.22)">Maps</text><text class="cls-29" transform="translate(289.28 545.22)"> </text><text class="cls-29" transform="translate(292.44 545.22)">API</text><text class="cls-29" transform="translate(309.44 545.22)"> </text><text class="cls-29" transform="translate(312.6 545.22)">and</text><text class="cls-29" transform="translate(331.24 545.22)"> </text><text class="cls-29" transform="translate(334.39 545.22)">includes</text><text class="cls-29" transform="translate(375.55 545.22)"> </text><text class="cls-29" transform="translate(378.71 545.22)">features</text><text class="cls-29" transform="translate(419.94 545.22)"> </text><text class="cls-29" transform="translate(423.1 545.22)">such</text><text class="cls-29" transform="translate(446.27 545.22)"> </text><text class="cls-29" transform="translate(449.42 545.22)">as</text><text class="cls-29" transform="translate(460.07 545.22)"> </text><text class="cls-29" transform="translate(463.22 545.22)">user</text><text class="cls-29" transform="translate(484.72 545.22)"> </text><text class="cls-29" transform="translate(0 559.62)">comments,</text><text class="cls-29" transform="translate(55.41 559.62)"> </text><text class="cls-29" transform="translate(58.56 559.62)">star</text><text class="cls-29" transform="translate(77.56 559.62)"> </text><text class="cls-29" transform="translate(80.71 559.62)"><tspan class="cls-66">r</tspan><tspan x="4.02" y="0">atings,</tspan></text><text class="cls-29" transform="translate(117.52 559.62)"> </text><text class="cls-29" transform="translate(120.67 559.62)">im<tspan class="cls-69" x="12.36" y="0">a</tspan><tspan class="cls-4" x="17.96" y="0">ge</tspan></text><text class="cls-29" transform="translate(150.71 559.62)"> </text><text class="cls-29" transform="translate(153.86 559.62)">uploading,</text><text class="cls-29" transform="translate(206.04 559.62)"> </text><text class="cls-29" transform="translate(209.19 559.62)">and</text><text class="cls-29" transform="translate(227.83 559.62)"> </text><text class="cls-29" transform="translate(230.99 559.62)">user</text><text class="cls-29" transform="translate(252.48 559.62)"> </text><text class="cls-29" transform="translate(255.63 559.62)">authentication.</text><text class="cls-29" transform="translate(0 574.02)">•Created</text><text class="cls-29" transform="translate(49.78 574.02)"> </text><text class="cls-29" transform="translate(52.93 574.02)">web</text><text class="cls-29" transform="translate(74.21 574.02)"> </text><text class="cls-29" transform="translate(77.37 574.02)">application</text><text class="cls-29" transform="translate(132.39 574.02)"> </text><text class="cls-29" transform="translate(135.54 574.02)">using</text><text class="cls-29" transform="translate(162.11 574.02)"> </text><text class="cls-29" transform="translate(165.27 574.02)"><tspan class="cls-9">R</tspan><tspan x="6.82" y="0">uby</tspan></text><text class="cls-29" transform="translate(190.76 574.02)"> </text><text class="cls-29" transform="translate(193.92 574.02)">on</text><text class="cls-29" transform="translate(206.76 574.02)"> </text><text class="cls-29" transform="translate(209.92 574.02)"><tspan class="cls-32">R</tspan><tspan x="6.88" y="0">ails,</tspan></text><text class="cls-29" transform="translate(235.59 574.02)"> </text><text class="cls-29" transform="translate(238.75 574.02)">HTML,</text><text class="cls-29" transform="translate(271.62 574.02)"> </text><text class="cls-29" transform="translate(274.77 574.02)">CSS,</text><text class="cls-29" transform="translate(296.42 574.02)"> </text><text class="cls-29" transform="translate(299.58 574.02)"><tspan class="cls-86">J</tspan><tspan class="cls-73" x="4.96" y="0">a</tspan><tspan class="cls-74" x="10.57" y="0">v</tspan><tspan x="16.31" y="0">aScrip</tspan><tspan class="cls-68" x="46.83" y="0">t</tspan><tspan x="51.14" y="0">,</tspan></text><text class="cls-29" transform="translate(353.42 574.02)"> </text><text class="cls-29" transform="translate(356.58 574.02)">and</text><text class="cls-29" transform="translate(375.21 574.02)"> </text><text class="cls-29" transform="translate(378.37 574.02)">Bootst<tspan class="cls-87" x="33.23" y="0">r</tspan><tspan x="37.25" y="0">ap.</tspan></text></svg>