<svg width="91" height="308" viewBox="0 0 91 308" fill="none" xmlns="http://www.w3.org/2000/svg">
<path d="M1.44 22.024C1.44 19.256 1.904 17.096 2.832 15.544C3.776 13.976 5.392 13.192 7.68 13.192C9.968 13.192 11.576 13.976 12.504 15.544C13.448 17.096 13.92 19.256 13.92 22.024C13.92 24.824 13.448 27.016 12.504 28.6C11.576 30.168 9.968 30.952 7.68 30.952C5.392 30.952 3.776 30.168 2.832 28.6C1.904 27.016 1.44 24.824 1.44 22.024ZM11.232 22.024C11.232 20.728 11.144 19.632 10.968 18.736C10.808 17.84 10.472 17.112 9.96 16.552C9.448 15.976 8.688 15.688 7.68 15.688C6.672 15.688 5.912 15.976 5.4 16.552C4.888 17.112 4.544 17.84 4.368 18.736C4.208 19.632 4.128 20.728 4.128 22.024C4.128 23.368 4.208 24.496 4.368 25.408C4.528 26.32 4.864 27.056 5.376 27.616C5.904 28.176 6.672 28.456 7.68 28.456C8.688 28.456 9.448 28.176 9.96 27.616C10.488 27.056 10.832 26.32 10.992 25.408C11.152 24.496 11.232 23.368 11.232 22.024ZM16.455 16V13.504H21.447V31H18.687V16H16.455Z" fill="black"/>
<circle cx="72" cy="19" r="19" fill="black"/>
<circle cx="72" cy="154" r="19" fill="#D9D9D9"/>
<circle cx="72" cy="289" r="19" fill="#D9D9D9"/>
</svg>
